<mxfile host="Electron" modified="2023-04-28T19:24:18.181Z" agent="Mozilla/5.0 (Windows NT 10.0; Win64; x64) AppleWebKit/537.36 (KHTML, like Gecko) draw.io/21.2.1 Chrome/112.0.5615.87 Electron/24.1.2 Safari/537.36" etag="ryUJj8p23qzuTLPMtHGO" version="21.2.1" type="device">
  <diagram name="Page-1" id="S_fpkNry13w91pw_uF5Z">
    <mxGraphModel dx="988" dy="570" grid="1" gridSize="10" guides="1" tooltips="1" connect="1" arrows="1" fold="1" page="1" pageScale="1" pageWidth="800" pageHeight="400" math="1" shadow="0">
      <root>
        <mxCell id="0" />
        <mxCell id="1" parent="0" />
        <mxCell id="UM2fPUtxfAE8h3gEoYwY-389" value="" style="shape=table;html=1;whiteSpace=wrap;startSize=0;container=1;collapsible=0;childLayout=tableLayout;columnLines=0;rowLines=0;fontSize=16;opacity=50;" vertex="1" parent="1">
          <mxGeometry x="350" y="170" width="120" height="120" as="geometry" />
        </mxCell>
        <mxCell id="UM2fPUtxfAE8h3gEoYwY-390" value="" style="shape=tableRow;horizontal=0;startSize=0;swimlaneHead=0;swimlaneBody=0;top=0;left=0;bottom=0;right=0;collapsible=0;dropTarget=0;fillColor=none;points=[[0,0.5],[1,0.5]];portConstraint=eastwest;fontSize=16;strokeColor=inherit;opacity=50;" vertex="1" parent="UM2fPUtxfAE8h3gEoYwY-389">
          <mxGeometry width="120" height="40" as="geometry" />
        </mxCell>
        <mxCell id="UM2fPUtxfAE8h3gEoYwY-391" value="" style="shape=partialRectangle;html=1;whiteSpace=wrap;connectable=0;fillColor=none;top=0;left=0;bottom=0;right=0;overflow=hidden;fontSize=12;strokeColor=inherit;" vertex="1" parent="UM2fPUtxfAE8h3gEoYwY-390">
          <mxGeometry width="40" height="40" as="geometry">
            <mxRectangle width="40" height="40" as="alternateBounds" />
          </mxGeometry>
        </mxCell>
        <mxCell id="UM2fPUtxfAE8h3gEoYwY-392" value="" style="shape=partialRectangle;html=1;whiteSpace=wrap;connectable=0;fillColor=none;top=0;left=0;bottom=0;right=0;overflow=hidden;fontSize=12;strokeColor=inherit;" vertex="1" parent="UM2fPUtxfAE8h3gEoYwY-390">
          <mxGeometry x="40" width="40" height="40" as="geometry">
            <mxRectangle width="40" height="40" as="alternateBounds" />
          </mxGeometry>
        </mxCell>
        <mxCell id="UM2fPUtxfAE8h3gEoYwY-393" value="" style="shape=partialRectangle;html=1;whiteSpace=wrap;connectable=0;fillColor=none;top=0;left=0;bottom=0;right=0;overflow=hidden;fontSize=12;strokeColor=inherit;" vertex="1" parent="UM2fPUtxfAE8h3gEoYwY-390">
          <mxGeometry x="80" width="40" height="40" as="geometry">
            <mxRectangle width="40" height="40" as="alternateBounds" />
          </mxGeometry>
        </mxCell>
        <mxCell id="UM2fPUtxfAE8h3gEoYwY-394" value="" style="shape=tableRow;horizontal=0;startSize=0;swimlaneHead=0;swimlaneBody=0;top=0;left=0;bottom=0;right=0;collapsible=0;dropTarget=0;fillColor=none;points=[[0,0.5],[1,0.5]];portConstraint=eastwest;fontSize=16;strokeColor=inherit;opacity=50;" vertex="1" parent="UM2fPUtxfAE8h3gEoYwY-389">
          <mxGeometry y="40" width="120" height="40" as="geometry" />
        </mxCell>
        <mxCell id="UM2fPUtxfAE8h3gEoYwY-395" value="" style="shape=partialRectangle;html=1;whiteSpace=wrap;connectable=0;fillColor=none;top=0;left=0;bottom=0;right=0;overflow=hidden;fontSize=12;strokeColor=inherit;" vertex="1" parent="UM2fPUtxfAE8h3gEoYwY-394">
          <mxGeometry width="40" height="40" as="geometry">
            <mxRectangle width="40" height="40" as="alternateBounds" />
          </mxGeometry>
        </mxCell>
        <mxCell id="UM2fPUtxfAE8h3gEoYwY-396" value="" style="shape=partialRectangle;html=1;whiteSpace=wrap;connectable=0;top=0;left=0;bottom=0;right=0;overflow=hidden;fontSize=12;fillColor=none;" vertex="1" parent="UM2fPUtxfAE8h3gEoYwY-394">
          <mxGeometry x="40" width="40" height="40" as="geometry">
            <mxRectangle width="40" height="40" as="alternateBounds" />
          </mxGeometry>
        </mxCell>
        <mxCell id="UM2fPUtxfAE8h3gEoYwY-397" value="" style="shape=partialRectangle;html=1;whiteSpace=wrap;connectable=0;fillColor=none;top=0;left=0;bottom=0;right=0;overflow=hidden;fontSize=12;strokeColor=inherit;" vertex="1" parent="UM2fPUtxfAE8h3gEoYwY-394">
          <mxGeometry x="80" width="40" height="40" as="geometry">
            <mxRectangle width="40" height="40" as="alternateBounds" />
          </mxGeometry>
        </mxCell>
        <mxCell id="UM2fPUtxfAE8h3gEoYwY-398" value="" style="shape=tableRow;horizontal=0;startSize=0;swimlaneHead=0;swimlaneBody=0;top=0;left=0;bottom=0;right=0;collapsible=0;dropTarget=0;fillColor=none;points=[[0,0.5],[1,0.5]];portConstraint=eastwest;fontSize=16;strokeColor=inherit;opacity=50;" vertex="1" parent="UM2fPUtxfAE8h3gEoYwY-389">
          <mxGeometry y="80" width="120" height="40" as="geometry" />
        </mxCell>
        <mxCell id="UM2fPUtxfAE8h3gEoYwY-399" value="" style="shape=partialRectangle;html=1;whiteSpace=wrap;connectable=0;fillColor=none;top=0;left=0;bottom=0;right=0;overflow=hidden;fontSize=12;strokeColor=inherit;" vertex="1" parent="UM2fPUtxfAE8h3gEoYwY-398">
          <mxGeometry width="40" height="40" as="geometry">
            <mxRectangle width="40" height="40" as="alternateBounds" />
          </mxGeometry>
        </mxCell>
        <mxCell id="UM2fPUtxfAE8h3gEoYwY-400" value="" style="shape=partialRectangle;html=1;whiteSpace=wrap;connectable=0;fillColor=none;top=0;left=0;bottom=0;right=0;overflow=hidden;fontSize=12;strokeColor=inherit;" vertex="1" parent="UM2fPUtxfAE8h3gEoYwY-398">
          <mxGeometry x="40" width="40" height="40" as="geometry">
            <mxRectangle width="40" height="40" as="alternateBounds" />
          </mxGeometry>
        </mxCell>
        <mxCell id="UM2fPUtxfAE8h3gEoYwY-401" value="" style="shape=partialRectangle;html=1;whiteSpace=wrap;connectable=0;fillColor=none;top=0;left=0;bottom=0;right=0;overflow=hidden;fontSize=12;strokeColor=inherit;" vertex="1" parent="UM2fPUtxfAE8h3gEoYwY-398">
          <mxGeometry x="80" width="40" height="40" as="geometry">
            <mxRectangle width="40" height="40" as="alternateBounds" />
          </mxGeometry>
        </mxCell>
        <mxCell id="UM2fPUtxfAE8h3gEoYwY-350" value="" style="shape=table;html=1;whiteSpace=wrap;startSize=0;container=1;collapsible=0;childLayout=tableLayout;columnLines=0;rowLines=0;fontSize=16;opacity=50;" vertex="1" parent="1">
          <mxGeometry x="360" y="180" width="120" height="120" as="geometry" />
        </mxCell>
        <mxCell id="UM2fPUtxfAE8h3gEoYwY-351" value="" style="shape=tableRow;horizontal=0;startSize=0;swimlaneHead=0;swimlaneBody=0;top=0;left=0;bottom=0;right=0;collapsible=0;dropTarget=0;fillColor=none;points=[[0,0.5],[1,0.5]];portConstraint=eastwest;fontSize=16;strokeColor=inherit;opacity=50;" vertex="1" parent="UM2fPUtxfAE8h3gEoYwY-350">
          <mxGeometry width="120" height="40" as="geometry" />
        </mxCell>
        <mxCell id="UM2fPUtxfAE8h3gEoYwY-352" value="" style="shape=partialRectangle;html=1;whiteSpace=wrap;connectable=0;fillColor=none;top=0;left=0;bottom=0;right=0;overflow=hidden;fontSize=12;strokeColor=inherit;" vertex="1" parent="UM2fPUtxfAE8h3gEoYwY-351">
          <mxGeometry width="40" height="40" as="geometry">
            <mxRectangle width="40" height="40" as="alternateBounds" />
          </mxGeometry>
        </mxCell>
        <mxCell id="UM2fPUtxfAE8h3gEoYwY-353" value="" style="shape=partialRectangle;html=1;whiteSpace=wrap;connectable=0;fillColor=none;top=0;left=0;bottom=0;right=0;overflow=hidden;fontSize=12;strokeColor=inherit;" vertex="1" parent="UM2fPUtxfAE8h3gEoYwY-351">
          <mxGeometry x="40" width="40" height="40" as="geometry">
            <mxRectangle width="40" height="40" as="alternateBounds" />
          </mxGeometry>
        </mxCell>
        <mxCell id="UM2fPUtxfAE8h3gEoYwY-354" value="" style="shape=partialRectangle;html=1;whiteSpace=wrap;connectable=0;fillColor=none;top=0;left=0;bottom=0;right=0;overflow=hidden;fontSize=12;strokeColor=inherit;" vertex="1" parent="UM2fPUtxfAE8h3gEoYwY-351">
          <mxGeometry x="80" width="40" height="40" as="geometry">
            <mxRectangle width="40" height="40" as="alternateBounds" />
          </mxGeometry>
        </mxCell>
        <mxCell id="UM2fPUtxfAE8h3gEoYwY-355" value="" style="shape=tableRow;horizontal=0;startSize=0;swimlaneHead=0;swimlaneBody=0;top=0;left=0;bottom=0;right=0;collapsible=0;dropTarget=0;fillColor=none;points=[[0,0.5],[1,0.5]];portConstraint=eastwest;fontSize=16;strokeColor=inherit;opacity=50;" vertex="1" parent="UM2fPUtxfAE8h3gEoYwY-350">
          <mxGeometry y="40" width="120" height="40" as="geometry" />
        </mxCell>
        <mxCell id="UM2fPUtxfAE8h3gEoYwY-356" value="" style="shape=partialRectangle;html=1;whiteSpace=wrap;connectable=0;fillColor=none;top=0;left=0;bottom=0;right=0;overflow=hidden;fontSize=12;strokeColor=inherit;" vertex="1" parent="UM2fPUtxfAE8h3gEoYwY-355">
          <mxGeometry width="40" height="40" as="geometry">
            <mxRectangle width="40" height="40" as="alternateBounds" />
          </mxGeometry>
        </mxCell>
        <mxCell id="UM2fPUtxfAE8h3gEoYwY-357" value="" style="shape=partialRectangle;html=1;whiteSpace=wrap;connectable=0;top=0;left=0;bottom=0;right=0;overflow=hidden;fontSize=12;" vertex="1" parent="UM2fPUtxfAE8h3gEoYwY-355">
          <mxGeometry x="40" width="40" height="40" as="geometry">
            <mxRectangle width="40" height="40" as="alternateBounds" />
          </mxGeometry>
        </mxCell>
        <mxCell id="UM2fPUtxfAE8h3gEoYwY-358" value="" style="shape=partialRectangle;html=1;whiteSpace=wrap;connectable=0;fillColor=none;top=0;left=0;bottom=0;right=0;overflow=hidden;fontSize=12;strokeColor=inherit;" vertex="1" parent="UM2fPUtxfAE8h3gEoYwY-355">
          <mxGeometry x="80" width="40" height="40" as="geometry">
            <mxRectangle width="40" height="40" as="alternateBounds" />
          </mxGeometry>
        </mxCell>
        <mxCell id="UM2fPUtxfAE8h3gEoYwY-359" value="" style="shape=tableRow;horizontal=0;startSize=0;swimlaneHead=0;swimlaneBody=0;top=0;left=0;bottom=0;right=0;collapsible=0;dropTarget=0;fillColor=none;points=[[0,0.5],[1,0.5]];portConstraint=eastwest;fontSize=16;strokeColor=inherit;opacity=50;" vertex="1" parent="UM2fPUtxfAE8h3gEoYwY-350">
          <mxGeometry y="80" width="120" height="40" as="geometry" />
        </mxCell>
        <mxCell id="UM2fPUtxfAE8h3gEoYwY-360" value="" style="shape=partialRectangle;html=1;whiteSpace=wrap;connectable=0;fillColor=none;top=0;left=0;bottom=0;right=0;overflow=hidden;fontSize=12;strokeColor=inherit;" vertex="1" parent="UM2fPUtxfAE8h3gEoYwY-359">
          <mxGeometry width="40" height="40" as="geometry">
            <mxRectangle width="40" height="40" as="alternateBounds" />
          </mxGeometry>
        </mxCell>
        <mxCell id="UM2fPUtxfAE8h3gEoYwY-361" value="" style="shape=partialRectangle;html=1;whiteSpace=wrap;connectable=0;fillColor=none;top=0;left=0;bottom=0;right=0;overflow=hidden;fontSize=12;strokeColor=inherit;" vertex="1" parent="UM2fPUtxfAE8h3gEoYwY-359">
          <mxGeometry x="40" width="40" height="40" as="geometry">
            <mxRectangle width="40" height="40" as="alternateBounds" />
          </mxGeometry>
        </mxCell>
        <mxCell id="UM2fPUtxfAE8h3gEoYwY-362" value="" style="shape=partialRectangle;html=1;whiteSpace=wrap;connectable=0;fillColor=none;top=0;left=0;bottom=0;right=0;overflow=hidden;fontSize=12;strokeColor=inherit;" vertex="1" parent="UM2fPUtxfAE8h3gEoYwY-359">
          <mxGeometry x="80" width="40" height="40" as="geometry">
            <mxRectangle width="40" height="40" as="alternateBounds" />
          </mxGeometry>
        </mxCell>
        <mxCell id="UM2fPUtxfAE8h3gEoYwY-293" value="" style="shape=table;startSize=0;container=1;collapsible=0;childLayout=tableLayout;fontSize=16;swimlaneFillColor=none;direction=south;fillStyle=auto;gradientColor=none;dashed=1;opacity=25;" vertex="1" parent="1">
          <mxGeometry x="10" y="40" width="280" height="280" as="geometry" />
        </mxCell>
        <mxCell id="UM2fPUtxfAE8h3gEoYwY-294" style="shape=tableRow;horizontal=0;startSize=0;swimlaneHead=0;swimlaneBody=0;strokeColor=inherit;top=0;left=0;bottom=0;right=0;collapsible=0;dropTarget=0;fillColor=none;points=[[0,0.5],[1,0.5]];portConstraint=eastwest;fontSize=16;swimlaneFillColor=none;opacity=25;" vertex="1" parent="UM2fPUtxfAE8h3gEoYwY-293">
          <mxGeometry width="280" height="40" as="geometry" />
        </mxCell>
        <mxCell id="UM2fPUtxfAE8h3gEoYwY-295" style="shape=partialRectangle;html=1;whiteSpace=wrap;connectable=0;strokeColor=inherit;overflow=hidden;fillColor=none;top=0;left=0;bottom=0;right=0;pointerEvents=1;fontSize=16;swimlaneFillColor=none;" vertex="1" parent="UM2fPUtxfAE8h3gEoYwY-294">
          <mxGeometry width="40" height="40" as="geometry">
            <mxRectangle width="40" height="40" as="alternateBounds" />
          </mxGeometry>
        </mxCell>
        <mxCell id="UM2fPUtxfAE8h3gEoYwY-296" style="shape=partialRectangle;html=1;whiteSpace=wrap;connectable=0;strokeColor=inherit;overflow=hidden;fillColor=none;top=0;left=0;bottom=0;right=0;pointerEvents=1;fontSize=16;swimlaneFillColor=none;" vertex="1" parent="UM2fPUtxfAE8h3gEoYwY-294">
          <mxGeometry x="40" width="40" height="40" as="geometry">
            <mxRectangle width="40" height="40" as="alternateBounds" />
          </mxGeometry>
        </mxCell>
        <mxCell id="UM2fPUtxfAE8h3gEoYwY-297" style="shape=partialRectangle;html=1;whiteSpace=wrap;connectable=0;strokeColor=inherit;overflow=hidden;fillColor=none;top=0;left=0;bottom=0;right=0;pointerEvents=1;fontSize=16;swimlaneFillColor=none;" vertex="1" parent="UM2fPUtxfAE8h3gEoYwY-294">
          <mxGeometry x="80" width="40" height="40" as="geometry">
            <mxRectangle width="40" height="40" as="alternateBounds" />
          </mxGeometry>
        </mxCell>
        <mxCell id="UM2fPUtxfAE8h3gEoYwY-298" style="shape=partialRectangle;html=1;whiteSpace=wrap;connectable=0;strokeColor=inherit;overflow=hidden;fillColor=none;top=0;left=0;bottom=0;right=0;pointerEvents=1;fontSize=16;swimlaneFillColor=none;" vertex="1" parent="UM2fPUtxfAE8h3gEoYwY-294">
          <mxGeometry x="120" width="40" height="40" as="geometry">
            <mxRectangle width="40" height="40" as="alternateBounds" />
          </mxGeometry>
        </mxCell>
        <mxCell id="UM2fPUtxfAE8h3gEoYwY-299" style="shape=partialRectangle;html=1;whiteSpace=wrap;connectable=0;strokeColor=inherit;overflow=hidden;fillColor=none;top=0;left=0;bottom=0;right=0;pointerEvents=1;fontSize=16;swimlaneFillColor=none;" vertex="1" parent="UM2fPUtxfAE8h3gEoYwY-294">
          <mxGeometry x="160" width="40" height="40" as="geometry">
            <mxRectangle width="40" height="40" as="alternateBounds" />
          </mxGeometry>
        </mxCell>
        <mxCell id="UM2fPUtxfAE8h3gEoYwY-300" style="shape=partialRectangle;html=1;whiteSpace=wrap;connectable=0;strokeColor=inherit;overflow=hidden;fillColor=none;top=0;left=0;bottom=0;right=0;pointerEvents=1;fontSize=16;swimlaneFillColor=none;" vertex="1" parent="UM2fPUtxfAE8h3gEoYwY-294">
          <mxGeometry x="200" width="40" height="40" as="geometry">
            <mxRectangle width="40" height="40" as="alternateBounds" />
          </mxGeometry>
        </mxCell>
        <mxCell id="UM2fPUtxfAE8h3gEoYwY-301" style="shape=partialRectangle;html=1;whiteSpace=wrap;connectable=0;strokeColor=inherit;overflow=hidden;fillColor=none;top=0;left=0;bottom=0;right=0;pointerEvents=1;fontSize=16;swimlaneFillColor=none;" vertex="1" parent="UM2fPUtxfAE8h3gEoYwY-294">
          <mxGeometry x="240" width="40" height="40" as="geometry">
            <mxRectangle width="40" height="40" as="alternateBounds" />
          </mxGeometry>
        </mxCell>
        <mxCell id="UM2fPUtxfAE8h3gEoYwY-302" value="" style="shape=tableRow;horizontal=0;startSize=0;swimlaneHead=0;swimlaneBody=0;strokeColor=inherit;top=0;left=0;bottom=0;right=0;collapsible=0;dropTarget=0;fillColor=none;points=[[0,0.5],[1,0.5]];portConstraint=eastwest;fontSize=16;swimlaneFillColor=none;opacity=25;" vertex="1" parent="UM2fPUtxfAE8h3gEoYwY-293">
          <mxGeometry y="40" width="280" height="40" as="geometry" />
        </mxCell>
        <mxCell id="UM2fPUtxfAE8h3gEoYwY-303" style="shape=partialRectangle;html=1;whiteSpace=wrap;connectable=0;strokeColor=inherit;overflow=hidden;fillColor=none;top=0;left=0;bottom=0;right=0;pointerEvents=1;fontSize=16;swimlaneFillColor=none;" vertex="1" parent="UM2fPUtxfAE8h3gEoYwY-302">
          <mxGeometry width="40" height="40" as="geometry">
            <mxRectangle width="40" height="40" as="alternateBounds" />
          </mxGeometry>
        </mxCell>
        <mxCell id="UM2fPUtxfAE8h3gEoYwY-304" style="shape=partialRectangle;html=1;whiteSpace=wrap;connectable=0;strokeColor=inherit;overflow=hidden;fillColor=none;top=0;left=0;bottom=0;right=0;pointerEvents=1;fontSize=16;swimlaneFillColor=none;" vertex="1" parent="UM2fPUtxfAE8h3gEoYwY-302">
          <mxGeometry x="40" width="40" height="40" as="geometry">
            <mxRectangle width="40" height="40" as="alternateBounds" />
          </mxGeometry>
        </mxCell>
        <mxCell id="UM2fPUtxfAE8h3gEoYwY-305" value="" style="shape=partialRectangle;html=1;whiteSpace=wrap;connectable=0;strokeColor=inherit;overflow=hidden;fillColor=none;top=0;left=0;bottom=0;right=0;pointerEvents=1;fontSize=16;swimlaneFillColor=none;" vertex="1" parent="UM2fPUtxfAE8h3gEoYwY-302">
          <mxGeometry x="80" width="40" height="40" as="geometry">
            <mxRectangle width="40" height="40" as="alternateBounds" />
          </mxGeometry>
        </mxCell>
        <mxCell id="UM2fPUtxfAE8h3gEoYwY-306" value="" style="shape=partialRectangle;html=1;whiteSpace=wrap;connectable=0;strokeColor=inherit;overflow=hidden;fillColor=none;top=0;left=0;bottom=0;right=0;pointerEvents=1;fontSize=16;swimlaneFillColor=none;" vertex="1" parent="UM2fPUtxfAE8h3gEoYwY-302">
          <mxGeometry x="120" width="40" height="40" as="geometry">
            <mxRectangle width="40" height="40" as="alternateBounds" />
          </mxGeometry>
        </mxCell>
        <mxCell id="UM2fPUtxfAE8h3gEoYwY-307" value="" style="shape=partialRectangle;html=1;whiteSpace=wrap;connectable=0;strokeColor=inherit;overflow=hidden;fillColor=none;top=0;left=0;bottom=0;right=0;pointerEvents=1;fontSize=16;swimlaneFillColor=none;" vertex="1" parent="UM2fPUtxfAE8h3gEoYwY-302">
          <mxGeometry x="160" width="40" height="40" as="geometry">
            <mxRectangle width="40" height="40" as="alternateBounds" />
          </mxGeometry>
        </mxCell>
        <mxCell id="UM2fPUtxfAE8h3gEoYwY-308" style="shape=partialRectangle;html=1;whiteSpace=wrap;connectable=0;strokeColor=inherit;overflow=hidden;fillColor=none;top=0;left=0;bottom=0;right=0;pointerEvents=1;fontSize=16;swimlaneFillColor=none;" vertex="1" parent="UM2fPUtxfAE8h3gEoYwY-302">
          <mxGeometry x="200" width="40" height="40" as="geometry">
            <mxRectangle width="40" height="40" as="alternateBounds" />
          </mxGeometry>
        </mxCell>
        <mxCell id="UM2fPUtxfAE8h3gEoYwY-309" style="shape=partialRectangle;html=1;whiteSpace=wrap;connectable=0;strokeColor=inherit;overflow=hidden;fillColor=none;top=0;left=0;bottom=0;right=0;pointerEvents=1;fontSize=16;swimlaneFillColor=none;" vertex="1" parent="UM2fPUtxfAE8h3gEoYwY-302">
          <mxGeometry x="240" width="40" height="40" as="geometry">
            <mxRectangle width="40" height="40" as="alternateBounds" />
          </mxGeometry>
        </mxCell>
        <mxCell id="UM2fPUtxfAE8h3gEoYwY-310" value="" style="shape=tableRow;horizontal=0;startSize=0;swimlaneHead=0;swimlaneBody=0;strokeColor=inherit;top=0;left=0;bottom=0;right=0;collapsible=0;dropTarget=0;fillColor=none;points=[[0,0.5],[1,0.5]];portConstraint=eastwest;fontSize=16;swimlaneFillColor=none;opacity=25;" vertex="1" parent="UM2fPUtxfAE8h3gEoYwY-293">
          <mxGeometry y="80" width="280" height="41" as="geometry" />
        </mxCell>
        <mxCell id="UM2fPUtxfAE8h3gEoYwY-311" style="shape=partialRectangle;html=1;whiteSpace=wrap;connectable=0;strokeColor=inherit;overflow=hidden;fillColor=none;top=0;left=0;bottom=0;right=0;pointerEvents=1;fontSize=16;swimlaneFillColor=none;" vertex="1" parent="UM2fPUtxfAE8h3gEoYwY-310">
          <mxGeometry width="40" height="41" as="geometry">
            <mxRectangle width="40" height="41" as="alternateBounds" />
          </mxGeometry>
        </mxCell>
        <mxCell id="UM2fPUtxfAE8h3gEoYwY-312" style="shape=partialRectangle;html=1;whiteSpace=wrap;connectable=0;strokeColor=inherit;overflow=hidden;fillColor=none;top=0;left=0;bottom=0;right=0;pointerEvents=1;fontSize=16;swimlaneFillColor=none;" vertex="1" parent="UM2fPUtxfAE8h3gEoYwY-310">
          <mxGeometry x="40" width="40" height="41" as="geometry">
            <mxRectangle width="40" height="41" as="alternateBounds" />
          </mxGeometry>
        </mxCell>
        <mxCell id="UM2fPUtxfAE8h3gEoYwY-313" value="" style="shape=partialRectangle;html=1;whiteSpace=wrap;connectable=0;strokeColor=inherit;overflow=hidden;fillColor=none;top=0;left=0;bottom=0;right=0;pointerEvents=1;fontSize=16;swimlaneFillColor=none;" vertex="1" parent="UM2fPUtxfAE8h3gEoYwY-310">
          <mxGeometry x="80" width="40" height="41" as="geometry">
            <mxRectangle width="40" height="41" as="alternateBounds" />
          </mxGeometry>
        </mxCell>
        <mxCell id="UM2fPUtxfAE8h3gEoYwY-314" value="" style="shape=partialRectangle;html=1;whiteSpace=wrap;connectable=0;strokeColor=inherit;overflow=hidden;fillColor=none;top=0;left=0;bottom=0;right=0;pointerEvents=1;fontSize=16;swimlaneFillColor=none;" vertex="1" parent="UM2fPUtxfAE8h3gEoYwY-310">
          <mxGeometry x="120" width="40" height="41" as="geometry">
            <mxRectangle width="40" height="41" as="alternateBounds" />
          </mxGeometry>
        </mxCell>
        <mxCell id="UM2fPUtxfAE8h3gEoYwY-315" value="" style="shape=partialRectangle;html=1;whiteSpace=wrap;connectable=0;strokeColor=inherit;overflow=hidden;fillColor=none;top=0;left=0;bottom=0;right=0;pointerEvents=1;fontSize=16;swimlaneFillColor=none;" vertex="1" parent="UM2fPUtxfAE8h3gEoYwY-310">
          <mxGeometry x="160" width="40" height="41" as="geometry">
            <mxRectangle width="40" height="41" as="alternateBounds" />
          </mxGeometry>
        </mxCell>
        <mxCell id="UM2fPUtxfAE8h3gEoYwY-316" style="shape=partialRectangle;html=1;whiteSpace=wrap;connectable=0;strokeColor=inherit;overflow=hidden;fillColor=none;top=0;left=0;bottom=0;right=0;pointerEvents=1;fontSize=16;swimlaneFillColor=none;" vertex="1" parent="UM2fPUtxfAE8h3gEoYwY-310">
          <mxGeometry x="200" width="40" height="41" as="geometry">
            <mxRectangle width="40" height="41" as="alternateBounds" />
          </mxGeometry>
        </mxCell>
        <mxCell id="UM2fPUtxfAE8h3gEoYwY-317" style="shape=partialRectangle;html=1;whiteSpace=wrap;connectable=0;strokeColor=inherit;overflow=hidden;fillColor=none;top=0;left=0;bottom=0;right=0;pointerEvents=1;fontSize=16;swimlaneFillColor=none;" vertex="1" parent="UM2fPUtxfAE8h3gEoYwY-310">
          <mxGeometry x="240" width="40" height="41" as="geometry">
            <mxRectangle width="40" height="41" as="alternateBounds" />
          </mxGeometry>
        </mxCell>
        <mxCell id="UM2fPUtxfAE8h3gEoYwY-318" style="shape=tableRow;horizontal=0;startSize=0;swimlaneHead=0;swimlaneBody=0;strokeColor=inherit;top=0;left=0;bottom=0;right=0;collapsible=0;dropTarget=0;fillColor=none;points=[[0,0.5],[1,0.5]];portConstraint=eastwest;fontSize=16;swimlaneFillColor=none;opacity=25;" vertex="1" parent="UM2fPUtxfAE8h3gEoYwY-293">
          <mxGeometry y="121" width="280" height="39" as="geometry" />
        </mxCell>
        <mxCell id="UM2fPUtxfAE8h3gEoYwY-319" style="shape=partialRectangle;html=1;whiteSpace=wrap;connectable=0;strokeColor=inherit;overflow=hidden;fillColor=none;top=0;left=0;bottom=0;right=0;pointerEvents=1;fontSize=16;swimlaneFillColor=none;" vertex="1" parent="UM2fPUtxfAE8h3gEoYwY-318">
          <mxGeometry width="40" height="39" as="geometry">
            <mxRectangle width="40" height="39" as="alternateBounds" />
          </mxGeometry>
        </mxCell>
        <mxCell id="UM2fPUtxfAE8h3gEoYwY-320" style="shape=partialRectangle;html=1;whiteSpace=wrap;connectable=0;strokeColor=inherit;overflow=hidden;fillColor=none;top=0;left=0;bottom=0;right=0;pointerEvents=1;fontSize=16;swimlaneFillColor=none;" vertex="1" parent="UM2fPUtxfAE8h3gEoYwY-318">
          <mxGeometry x="40" width="40" height="39" as="geometry">
            <mxRectangle width="40" height="39" as="alternateBounds" />
          </mxGeometry>
        </mxCell>
        <mxCell id="UM2fPUtxfAE8h3gEoYwY-321" style="shape=partialRectangle;html=1;whiteSpace=wrap;connectable=0;strokeColor=inherit;overflow=hidden;fillColor=none;top=0;left=0;bottom=0;right=0;pointerEvents=1;fontSize=16;swimlaneFillColor=none;" vertex="1" parent="UM2fPUtxfAE8h3gEoYwY-318">
          <mxGeometry x="80" width="40" height="39" as="geometry">
            <mxRectangle width="40" height="39" as="alternateBounds" />
          </mxGeometry>
        </mxCell>
        <mxCell id="UM2fPUtxfAE8h3gEoYwY-322" style="shape=partialRectangle;html=1;whiteSpace=wrap;connectable=0;strokeColor=inherit;overflow=hidden;fillColor=none;top=0;left=0;bottom=0;right=0;pointerEvents=1;fontSize=16;swimlaneFillColor=none;" vertex="1" parent="UM2fPUtxfAE8h3gEoYwY-318">
          <mxGeometry x="120" width="40" height="39" as="geometry">
            <mxRectangle width="40" height="39" as="alternateBounds" />
          </mxGeometry>
        </mxCell>
        <mxCell id="UM2fPUtxfAE8h3gEoYwY-323" style="shape=partialRectangle;html=1;whiteSpace=wrap;connectable=0;strokeColor=inherit;overflow=hidden;fillColor=none;top=0;left=0;bottom=0;right=0;pointerEvents=1;fontSize=16;swimlaneFillColor=none;" vertex="1" parent="UM2fPUtxfAE8h3gEoYwY-318">
          <mxGeometry x="160" width="40" height="39" as="geometry">
            <mxRectangle width="40" height="39" as="alternateBounds" />
          </mxGeometry>
        </mxCell>
        <mxCell id="UM2fPUtxfAE8h3gEoYwY-324" style="shape=partialRectangle;html=1;whiteSpace=wrap;connectable=0;strokeColor=inherit;overflow=hidden;fillColor=none;top=0;left=0;bottom=0;right=0;pointerEvents=1;fontSize=16;swimlaneFillColor=none;" vertex="1" parent="UM2fPUtxfAE8h3gEoYwY-318">
          <mxGeometry x="200" width="40" height="39" as="geometry">
            <mxRectangle width="40" height="39" as="alternateBounds" />
          </mxGeometry>
        </mxCell>
        <mxCell id="UM2fPUtxfAE8h3gEoYwY-325" style="shape=partialRectangle;html=1;whiteSpace=wrap;connectable=0;strokeColor=inherit;overflow=hidden;fillColor=none;top=0;left=0;bottom=0;right=0;pointerEvents=1;fontSize=16;swimlaneFillColor=none;" vertex="1" parent="UM2fPUtxfAE8h3gEoYwY-318">
          <mxGeometry x="240" width="40" height="39" as="geometry">
            <mxRectangle width="40" height="39" as="alternateBounds" />
          </mxGeometry>
        </mxCell>
        <mxCell id="UM2fPUtxfAE8h3gEoYwY-326" style="shape=tableRow;horizontal=0;startSize=0;swimlaneHead=0;swimlaneBody=0;strokeColor=inherit;top=0;left=0;bottom=0;right=0;collapsible=0;dropTarget=0;fillColor=none;points=[[0,0.5],[1,0.5]];portConstraint=eastwest;fontSize=16;swimlaneFillColor=none;opacity=25;" vertex="1" parent="UM2fPUtxfAE8h3gEoYwY-293">
          <mxGeometry y="160" width="280" height="40" as="geometry" />
        </mxCell>
        <mxCell id="UM2fPUtxfAE8h3gEoYwY-327" style="shape=partialRectangle;html=1;whiteSpace=wrap;connectable=0;strokeColor=inherit;overflow=hidden;fillColor=none;top=0;left=0;bottom=0;right=0;pointerEvents=1;fontSize=16;swimlaneFillColor=none;" vertex="1" parent="UM2fPUtxfAE8h3gEoYwY-326">
          <mxGeometry width="40" height="40" as="geometry">
            <mxRectangle width="40" height="40" as="alternateBounds" />
          </mxGeometry>
        </mxCell>
        <mxCell id="UM2fPUtxfAE8h3gEoYwY-328" style="shape=partialRectangle;html=1;whiteSpace=wrap;connectable=0;strokeColor=inherit;overflow=hidden;fillColor=none;top=0;left=0;bottom=0;right=0;pointerEvents=1;fontSize=16;swimlaneFillColor=none;" vertex="1" parent="UM2fPUtxfAE8h3gEoYwY-326">
          <mxGeometry x="40" width="40" height="40" as="geometry">
            <mxRectangle width="40" height="40" as="alternateBounds" />
          </mxGeometry>
        </mxCell>
        <mxCell id="UM2fPUtxfAE8h3gEoYwY-329" style="shape=partialRectangle;html=1;whiteSpace=wrap;connectable=0;strokeColor=inherit;overflow=hidden;fillColor=none;top=0;left=0;bottom=0;right=0;pointerEvents=1;fontSize=16;swimlaneFillColor=none;" vertex="1" parent="UM2fPUtxfAE8h3gEoYwY-326">
          <mxGeometry x="80" width="40" height="40" as="geometry">
            <mxRectangle width="40" height="40" as="alternateBounds" />
          </mxGeometry>
        </mxCell>
        <mxCell id="UM2fPUtxfAE8h3gEoYwY-330" style="shape=partialRectangle;html=1;whiteSpace=wrap;connectable=0;strokeColor=inherit;overflow=hidden;fillColor=none;top=0;left=0;bottom=0;right=0;pointerEvents=1;fontSize=16;swimlaneFillColor=none;" vertex="1" parent="UM2fPUtxfAE8h3gEoYwY-326">
          <mxGeometry x="120" width="40" height="40" as="geometry">
            <mxRectangle width="40" height="40" as="alternateBounds" />
          </mxGeometry>
        </mxCell>
        <mxCell id="UM2fPUtxfAE8h3gEoYwY-331" style="shape=partialRectangle;html=1;whiteSpace=wrap;connectable=0;strokeColor=inherit;overflow=hidden;fillColor=none;top=0;left=0;bottom=0;right=0;pointerEvents=1;fontSize=16;swimlaneFillColor=none;" vertex="1" parent="UM2fPUtxfAE8h3gEoYwY-326">
          <mxGeometry x="160" width="40" height="40" as="geometry">
            <mxRectangle width="40" height="40" as="alternateBounds" />
          </mxGeometry>
        </mxCell>
        <mxCell id="UM2fPUtxfAE8h3gEoYwY-332" style="shape=partialRectangle;html=1;whiteSpace=wrap;connectable=0;strokeColor=inherit;overflow=hidden;fillColor=none;top=0;left=0;bottom=0;right=0;pointerEvents=1;fontSize=16;swimlaneFillColor=none;" vertex="1" parent="UM2fPUtxfAE8h3gEoYwY-326">
          <mxGeometry x="200" width="40" height="40" as="geometry">
            <mxRectangle width="40" height="40" as="alternateBounds" />
          </mxGeometry>
        </mxCell>
        <mxCell id="UM2fPUtxfAE8h3gEoYwY-333" style="shape=partialRectangle;html=1;whiteSpace=wrap;connectable=0;strokeColor=inherit;overflow=hidden;fillColor=none;top=0;left=0;bottom=0;right=0;pointerEvents=1;fontSize=16;swimlaneFillColor=none;" vertex="1" parent="UM2fPUtxfAE8h3gEoYwY-326">
          <mxGeometry x="240" width="40" height="40" as="geometry">
            <mxRectangle width="40" height="40" as="alternateBounds" />
          </mxGeometry>
        </mxCell>
        <mxCell id="UM2fPUtxfAE8h3gEoYwY-334" value="" style="shape=tableRow;horizontal=0;startSize=0;swimlaneHead=0;swimlaneBody=0;strokeColor=inherit;top=0;left=0;bottom=0;right=0;collapsible=0;dropTarget=0;fillColor=none;points=[[0,0.5],[1,0.5]];portConstraint=eastwest;fontSize=16;swimlaneFillColor=none;opacity=25;" vertex="1" parent="UM2fPUtxfAE8h3gEoYwY-293">
          <mxGeometry y="200" width="280" height="40" as="geometry" />
        </mxCell>
        <mxCell id="UM2fPUtxfAE8h3gEoYwY-335" style="shape=partialRectangle;html=1;whiteSpace=wrap;connectable=0;strokeColor=inherit;overflow=hidden;fillColor=none;top=0;left=0;bottom=0;right=0;pointerEvents=1;fontSize=16;swimlaneFillColor=none;" vertex="1" parent="UM2fPUtxfAE8h3gEoYwY-334">
          <mxGeometry width="40" height="40" as="geometry">
            <mxRectangle width="40" height="40" as="alternateBounds" />
          </mxGeometry>
        </mxCell>
        <mxCell id="UM2fPUtxfAE8h3gEoYwY-336" style="shape=partialRectangle;html=1;whiteSpace=wrap;connectable=0;strokeColor=inherit;overflow=hidden;fillColor=none;top=0;left=0;bottom=0;right=0;pointerEvents=1;fontSize=16;swimlaneFillColor=none;" vertex="1" parent="UM2fPUtxfAE8h3gEoYwY-334">
          <mxGeometry x="40" width="40" height="40" as="geometry">
            <mxRectangle width="40" height="40" as="alternateBounds" />
          </mxGeometry>
        </mxCell>
        <mxCell id="UM2fPUtxfAE8h3gEoYwY-337" value="" style="shape=partialRectangle;html=1;whiteSpace=wrap;connectable=0;strokeColor=inherit;overflow=hidden;fillColor=none;top=0;left=0;bottom=0;right=0;pointerEvents=1;fontSize=16;swimlaneFillColor=none;" vertex="1" parent="UM2fPUtxfAE8h3gEoYwY-334">
          <mxGeometry x="80" width="40" height="40" as="geometry">
            <mxRectangle width="40" height="40" as="alternateBounds" />
          </mxGeometry>
        </mxCell>
        <mxCell id="UM2fPUtxfAE8h3gEoYwY-338" value="" style="shape=partialRectangle;html=1;whiteSpace=wrap;connectable=0;strokeColor=inherit;overflow=hidden;fillColor=none;top=0;left=0;bottom=0;right=0;pointerEvents=1;fontSize=16;swimlaneFillColor=none;" vertex="1" parent="UM2fPUtxfAE8h3gEoYwY-334">
          <mxGeometry x="120" width="40" height="40" as="geometry">
            <mxRectangle width="40" height="40" as="alternateBounds" />
          </mxGeometry>
        </mxCell>
        <mxCell id="UM2fPUtxfAE8h3gEoYwY-339" value="" style="shape=partialRectangle;html=1;whiteSpace=wrap;connectable=0;strokeColor=inherit;overflow=hidden;fillColor=none;top=0;left=0;bottom=0;right=0;pointerEvents=1;fontSize=16;swimlaneFillColor=none;" vertex="1" parent="UM2fPUtxfAE8h3gEoYwY-334">
          <mxGeometry x="160" width="40" height="40" as="geometry">
            <mxRectangle width="40" height="40" as="alternateBounds" />
          </mxGeometry>
        </mxCell>
        <mxCell id="UM2fPUtxfAE8h3gEoYwY-340" style="shape=partialRectangle;html=1;whiteSpace=wrap;connectable=0;strokeColor=inherit;overflow=hidden;fillColor=none;top=0;left=0;bottom=0;right=0;pointerEvents=1;fontSize=16;swimlaneFillColor=none;" vertex="1" parent="UM2fPUtxfAE8h3gEoYwY-334">
          <mxGeometry x="200" width="40" height="40" as="geometry">
            <mxRectangle width="40" height="40" as="alternateBounds" />
          </mxGeometry>
        </mxCell>
        <mxCell id="UM2fPUtxfAE8h3gEoYwY-341" style="shape=partialRectangle;html=1;whiteSpace=wrap;connectable=0;strokeColor=inherit;overflow=hidden;fillColor=none;top=0;left=0;bottom=0;right=0;pointerEvents=1;fontSize=16;swimlaneFillColor=none;" vertex="1" parent="UM2fPUtxfAE8h3gEoYwY-334">
          <mxGeometry x="240" width="40" height="40" as="geometry">
            <mxRectangle width="40" height="40" as="alternateBounds" />
          </mxGeometry>
        </mxCell>
        <mxCell id="UM2fPUtxfAE8h3gEoYwY-342" style="shape=tableRow;horizontal=0;startSize=0;swimlaneHead=0;swimlaneBody=0;strokeColor=inherit;top=0;left=0;bottom=0;right=0;collapsible=0;dropTarget=0;fillColor=none;points=[[0,0.5],[1,0.5]];portConstraint=eastwest;fontSize=16;swimlaneFillColor=none;opacity=25;" vertex="1" parent="UM2fPUtxfAE8h3gEoYwY-293">
          <mxGeometry y="240" width="280" height="40" as="geometry" />
        </mxCell>
        <mxCell id="UM2fPUtxfAE8h3gEoYwY-343" style="shape=partialRectangle;html=1;whiteSpace=wrap;connectable=0;strokeColor=inherit;overflow=hidden;fillColor=none;top=0;left=0;bottom=0;right=0;pointerEvents=1;fontSize=16;swimlaneFillColor=none;" vertex="1" parent="UM2fPUtxfAE8h3gEoYwY-342">
          <mxGeometry width="40" height="40" as="geometry">
            <mxRectangle width="40" height="40" as="alternateBounds" />
          </mxGeometry>
        </mxCell>
        <mxCell id="UM2fPUtxfAE8h3gEoYwY-344" style="shape=partialRectangle;html=1;whiteSpace=wrap;connectable=0;strokeColor=inherit;overflow=hidden;fillColor=none;top=0;left=0;bottom=0;right=0;pointerEvents=1;fontSize=16;swimlaneFillColor=none;" vertex="1" parent="UM2fPUtxfAE8h3gEoYwY-342">
          <mxGeometry x="40" width="40" height="40" as="geometry">
            <mxRectangle width="40" height="40" as="alternateBounds" />
          </mxGeometry>
        </mxCell>
        <mxCell id="UM2fPUtxfAE8h3gEoYwY-345" style="shape=partialRectangle;html=1;whiteSpace=wrap;connectable=0;strokeColor=inherit;overflow=hidden;fillColor=none;top=0;left=0;bottom=0;right=0;pointerEvents=1;fontSize=16;swimlaneFillColor=none;" vertex="1" parent="UM2fPUtxfAE8h3gEoYwY-342">
          <mxGeometry x="80" width="40" height="40" as="geometry">
            <mxRectangle width="40" height="40" as="alternateBounds" />
          </mxGeometry>
        </mxCell>
        <mxCell id="UM2fPUtxfAE8h3gEoYwY-346" style="shape=partialRectangle;html=1;whiteSpace=wrap;connectable=0;strokeColor=inherit;overflow=hidden;fillColor=none;top=0;left=0;bottom=0;right=0;pointerEvents=1;fontSize=16;swimlaneFillColor=none;" vertex="1" parent="UM2fPUtxfAE8h3gEoYwY-342">
          <mxGeometry x="120" width="40" height="40" as="geometry">
            <mxRectangle width="40" height="40" as="alternateBounds" />
          </mxGeometry>
        </mxCell>
        <mxCell id="UM2fPUtxfAE8h3gEoYwY-347" style="shape=partialRectangle;html=1;whiteSpace=wrap;connectable=0;strokeColor=inherit;overflow=hidden;fillColor=none;top=0;left=0;bottom=0;right=0;pointerEvents=1;fontSize=16;swimlaneFillColor=none;" vertex="1" parent="UM2fPUtxfAE8h3gEoYwY-342">
          <mxGeometry x="160" width="40" height="40" as="geometry">
            <mxRectangle width="40" height="40" as="alternateBounds" />
          </mxGeometry>
        </mxCell>
        <mxCell id="UM2fPUtxfAE8h3gEoYwY-348" style="shape=partialRectangle;html=1;whiteSpace=wrap;connectable=0;strokeColor=inherit;overflow=hidden;fillColor=none;top=0;left=0;bottom=0;right=0;pointerEvents=1;fontSize=16;swimlaneFillColor=none;" vertex="1" parent="UM2fPUtxfAE8h3gEoYwY-342">
          <mxGeometry x="200" width="40" height="40" as="geometry">
            <mxRectangle width="40" height="40" as="alternateBounds" />
          </mxGeometry>
        </mxCell>
        <mxCell id="UM2fPUtxfAE8h3gEoYwY-349" style="shape=partialRectangle;html=1;whiteSpace=wrap;connectable=0;strokeColor=inherit;overflow=hidden;fillColor=none;top=0;left=0;bottom=0;right=0;pointerEvents=1;fontSize=16;swimlaneFillColor=none;" vertex="1" parent="UM2fPUtxfAE8h3gEoYwY-342">
          <mxGeometry x="240" width="40" height="40" as="geometry">
            <mxRectangle width="40" height="40" as="alternateBounds" />
          </mxGeometry>
        </mxCell>
        <mxCell id="UM2fPUtxfAE8h3gEoYwY-236" value="" style="shape=table;startSize=0;container=1;collapsible=0;childLayout=tableLayout;fontSize=16;swimlaneFillColor=none;direction=south;fillStyle=auto;gradientColor=none;dashed=1;opacity=50;" vertex="1" parent="1">
          <mxGeometry x="20" y="50" width="280" height="280" as="geometry" />
        </mxCell>
        <mxCell id="UM2fPUtxfAE8h3gEoYwY-237" style="shape=tableRow;horizontal=0;startSize=0;swimlaneHead=0;swimlaneBody=0;strokeColor=inherit;top=0;left=0;bottom=0;right=0;collapsible=0;dropTarget=0;fillColor=none;points=[[0,0.5],[1,0.5]];portConstraint=eastwest;fontSize=16;swimlaneFillColor=none;" vertex="1" parent="UM2fPUtxfAE8h3gEoYwY-236">
          <mxGeometry width="280" height="40" as="geometry" />
        </mxCell>
        <mxCell id="UM2fPUtxfAE8h3gEoYwY-238" style="shape=partialRectangle;html=1;whiteSpace=wrap;connectable=0;strokeColor=inherit;overflow=hidden;fillColor=none;top=0;left=0;bottom=0;right=0;pointerEvents=1;fontSize=16;swimlaneFillColor=none;" vertex="1" parent="UM2fPUtxfAE8h3gEoYwY-237">
          <mxGeometry width="40" height="40" as="geometry">
            <mxRectangle width="40" height="40" as="alternateBounds" />
          </mxGeometry>
        </mxCell>
        <mxCell id="UM2fPUtxfAE8h3gEoYwY-239" style="shape=partialRectangle;html=1;whiteSpace=wrap;connectable=0;strokeColor=inherit;overflow=hidden;fillColor=none;top=0;left=0;bottom=0;right=0;pointerEvents=1;fontSize=16;swimlaneFillColor=none;" vertex="1" parent="UM2fPUtxfAE8h3gEoYwY-237">
          <mxGeometry x="40" width="40" height="40" as="geometry">
            <mxRectangle width="40" height="40" as="alternateBounds" />
          </mxGeometry>
        </mxCell>
        <mxCell id="UM2fPUtxfAE8h3gEoYwY-240" style="shape=partialRectangle;html=1;whiteSpace=wrap;connectable=0;strokeColor=inherit;overflow=hidden;fillColor=none;top=0;left=0;bottom=0;right=0;pointerEvents=1;fontSize=16;swimlaneFillColor=none;" vertex="1" parent="UM2fPUtxfAE8h3gEoYwY-237">
          <mxGeometry x="80" width="40" height="40" as="geometry">
            <mxRectangle width="40" height="40" as="alternateBounds" />
          </mxGeometry>
        </mxCell>
        <mxCell id="UM2fPUtxfAE8h3gEoYwY-241" style="shape=partialRectangle;html=1;whiteSpace=wrap;connectable=0;strokeColor=inherit;overflow=hidden;fillColor=none;top=0;left=0;bottom=0;right=0;pointerEvents=1;fontSize=16;swimlaneFillColor=none;" vertex="1" parent="UM2fPUtxfAE8h3gEoYwY-237">
          <mxGeometry x="120" width="40" height="40" as="geometry">
            <mxRectangle width="40" height="40" as="alternateBounds" />
          </mxGeometry>
        </mxCell>
        <mxCell id="UM2fPUtxfAE8h3gEoYwY-242" style="shape=partialRectangle;html=1;whiteSpace=wrap;connectable=0;strokeColor=inherit;overflow=hidden;fillColor=none;top=0;left=0;bottom=0;right=0;pointerEvents=1;fontSize=16;swimlaneFillColor=none;" vertex="1" parent="UM2fPUtxfAE8h3gEoYwY-237">
          <mxGeometry x="160" width="40" height="40" as="geometry">
            <mxRectangle width="40" height="40" as="alternateBounds" />
          </mxGeometry>
        </mxCell>
        <mxCell id="UM2fPUtxfAE8h3gEoYwY-243" style="shape=partialRectangle;html=1;whiteSpace=wrap;connectable=0;strokeColor=inherit;overflow=hidden;fillColor=none;top=0;left=0;bottom=0;right=0;pointerEvents=1;fontSize=16;swimlaneFillColor=none;" vertex="1" parent="UM2fPUtxfAE8h3gEoYwY-237">
          <mxGeometry x="200" width="40" height="40" as="geometry">
            <mxRectangle width="40" height="40" as="alternateBounds" />
          </mxGeometry>
        </mxCell>
        <mxCell id="UM2fPUtxfAE8h3gEoYwY-244" style="shape=partialRectangle;html=1;whiteSpace=wrap;connectable=0;strokeColor=inherit;overflow=hidden;fillColor=none;top=0;left=0;bottom=0;right=0;pointerEvents=1;fontSize=16;swimlaneFillColor=none;" vertex="1" parent="UM2fPUtxfAE8h3gEoYwY-237">
          <mxGeometry x="240" width="40" height="40" as="geometry">
            <mxRectangle width="40" height="40" as="alternateBounds" />
          </mxGeometry>
        </mxCell>
        <mxCell id="UM2fPUtxfAE8h3gEoYwY-245" value="" style="shape=tableRow;horizontal=0;startSize=0;swimlaneHead=0;swimlaneBody=0;strokeColor=inherit;top=0;left=0;bottom=0;right=0;collapsible=0;dropTarget=0;fillColor=none;points=[[0,0.5],[1,0.5]];portConstraint=eastwest;fontSize=16;swimlaneFillColor=none;" vertex="1" parent="UM2fPUtxfAE8h3gEoYwY-236">
          <mxGeometry y="40" width="280" height="40" as="geometry" />
        </mxCell>
        <mxCell id="UM2fPUtxfAE8h3gEoYwY-246" style="shape=partialRectangle;html=1;whiteSpace=wrap;connectable=0;strokeColor=inherit;overflow=hidden;fillColor=none;top=0;left=0;bottom=0;right=0;pointerEvents=1;fontSize=16;swimlaneFillColor=none;" vertex="1" parent="UM2fPUtxfAE8h3gEoYwY-245">
          <mxGeometry width="40" height="40" as="geometry">
            <mxRectangle width="40" height="40" as="alternateBounds" />
          </mxGeometry>
        </mxCell>
        <mxCell id="UM2fPUtxfAE8h3gEoYwY-247" style="shape=partialRectangle;html=1;whiteSpace=wrap;connectable=0;strokeColor=inherit;overflow=hidden;fillColor=none;top=0;left=0;bottom=0;right=0;pointerEvents=1;fontSize=16;swimlaneFillColor=none;" vertex="1" parent="UM2fPUtxfAE8h3gEoYwY-245">
          <mxGeometry x="40" width="40" height="40" as="geometry">
            <mxRectangle width="40" height="40" as="alternateBounds" />
          </mxGeometry>
        </mxCell>
        <mxCell id="UM2fPUtxfAE8h3gEoYwY-248" value="" style="shape=partialRectangle;html=1;whiteSpace=wrap;connectable=0;strokeColor=inherit;overflow=hidden;fillColor=none;top=0;left=0;bottom=0;right=0;pointerEvents=1;fontSize=16;swimlaneFillColor=none;" vertex="1" parent="UM2fPUtxfAE8h3gEoYwY-245">
          <mxGeometry x="80" width="40" height="40" as="geometry">
            <mxRectangle width="40" height="40" as="alternateBounds" />
          </mxGeometry>
        </mxCell>
        <mxCell id="UM2fPUtxfAE8h3gEoYwY-249" value="" style="shape=partialRectangle;html=1;whiteSpace=wrap;connectable=0;strokeColor=inherit;overflow=hidden;fillColor=none;top=0;left=0;bottom=0;right=0;pointerEvents=1;fontSize=16;swimlaneFillColor=none;" vertex="1" parent="UM2fPUtxfAE8h3gEoYwY-245">
          <mxGeometry x="120" width="40" height="40" as="geometry">
            <mxRectangle width="40" height="40" as="alternateBounds" />
          </mxGeometry>
        </mxCell>
        <mxCell id="UM2fPUtxfAE8h3gEoYwY-250" value="" style="shape=partialRectangle;html=1;whiteSpace=wrap;connectable=0;strokeColor=inherit;overflow=hidden;fillColor=none;top=0;left=0;bottom=0;right=0;pointerEvents=1;fontSize=16;swimlaneFillColor=none;" vertex="1" parent="UM2fPUtxfAE8h3gEoYwY-245">
          <mxGeometry x="160" width="40" height="40" as="geometry">
            <mxRectangle width="40" height="40" as="alternateBounds" />
          </mxGeometry>
        </mxCell>
        <mxCell id="UM2fPUtxfAE8h3gEoYwY-251" style="shape=partialRectangle;html=1;whiteSpace=wrap;connectable=0;strokeColor=inherit;overflow=hidden;fillColor=none;top=0;left=0;bottom=0;right=0;pointerEvents=1;fontSize=16;swimlaneFillColor=none;" vertex="1" parent="UM2fPUtxfAE8h3gEoYwY-245">
          <mxGeometry x="200" width="40" height="40" as="geometry">
            <mxRectangle width="40" height="40" as="alternateBounds" />
          </mxGeometry>
        </mxCell>
        <mxCell id="UM2fPUtxfAE8h3gEoYwY-252" style="shape=partialRectangle;html=1;whiteSpace=wrap;connectable=0;strokeColor=inherit;overflow=hidden;fillColor=none;top=0;left=0;bottom=0;right=0;pointerEvents=1;fontSize=16;swimlaneFillColor=none;" vertex="1" parent="UM2fPUtxfAE8h3gEoYwY-245">
          <mxGeometry x="240" width="40" height="40" as="geometry">
            <mxRectangle width="40" height="40" as="alternateBounds" />
          </mxGeometry>
        </mxCell>
        <mxCell id="UM2fPUtxfAE8h3gEoYwY-253" value="" style="shape=tableRow;horizontal=0;startSize=0;swimlaneHead=0;swimlaneBody=0;strokeColor=inherit;top=0;left=0;bottom=0;right=0;collapsible=0;dropTarget=0;fillColor=none;points=[[0,0.5],[1,0.5]];portConstraint=eastwest;fontSize=16;swimlaneFillColor=none;" vertex="1" parent="UM2fPUtxfAE8h3gEoYwY-236">
          <mxGeometry y="80" width="280" height="41" as="geometry" />
        </mxCell>
        <mxCell id="UM2fPUtxfAE8h3gEoYwY-254" style="shape=partialRectangle;html=1;whiteSpace=wrap;connectable=0;strokeColor=inherit;overflow=hidden;fillColor=none;top=0;left=0;bottom=0;right=0;pointerEvents=1;fontSize=16;swimlaneFillColor=none;" vertex="1" parent="UM2fPUtxfAE8h3gEoYwY-253">
          <mxGeometry width="40" height="41" as="geometry">
            <mxRectangle width="40" height="41" as="alternateBounds" />
          </mxGeometry>
        </mxCell>
        <mxCell id="UM2fPUtxfAE8h3gEoYwY-255" style="shape=partialRectangle;html=1;whiteSpace=wrap;connectable=0;strokeColor=inherit;overflow=hidden;fillColor=none;top=0;left=0;bottom=0;right=0;pointerEvents=1;fontSize=16;swimlaneFillColor=none;" vertex="1" parent="UM2fPUtxfAE8h3gEoYwY-253">
          <mxGeometry x="40" width="40" height="41" as="geometry">
            <mxRectangle width="40" height="41" as="alternateBounds" />
          </mxGeometry>
        </mxCell>
        <mxCell id="UM2fPUtxfAE8h3gEoYwY-256" value="" style="shape=partialRectangle;html=1;whiteSpace=wrap;connectable=0;strokeColor=inherit;overflow=hidden;fillColor=none;top=0;left=0;bottom=0;right=0;pointerEvents=1;fontSize=16;swimlaneFillColor=none;" vertex="1" parent="UM2fPUtxfAE8h3gEoYwY-253">
          <mxGeometry x="80" width="40" height="41" as="geometry">
            <mxRectangle width="40" height="41" as="alternateBounds" />
          </mxGeometry>
        </mxCell>
        <mxCell id="UM2fPUtxfAE8h3gEoYwY-257" value="" style="shape=partialRectangle;html=1;whiteSpace=wrap;connectable=0;strokeColor=inherit;overflow=hidden;fillColor=none;top=0;left=0;bottom=0;right=0;pointerEvents=1;fontSize=16;swimlaneFillColor=none;" vertex="1" parent="UM2fPUtxfAE8h3gEoYwY-253">
          <mxGeometry x="120" width="40" height="41" as="geometry">
            <mxRectangle width="40" height="41" as="alternateBounds" />
          </mxGeometry>
        </mxCell>
        <mxCell id="UM2fPUtxfAE8h3gEoYwY-258" value="" style="shape=partialRectangle;html=1;whiteSpace=wrap;connectable=0;strokeColor=inherit;overflow=hidden;fillColor=none;top=0;left=0;bottom=0;right=0;pointerEvents=1;fontSize=16;swimlaneFillColor=none;" vertex="1" parent="UM2fPUtxfAE8h3gEoYwY-253">
          <mxGeometry x="160" width="40" height="41" as="geometry">
            <mxRectangle width="40" height="41" as="alternateBounds" />
          </mxGeometry>
        </mxCell>
        <mxCell id="UM2fPUtxfAE8h3gEoYwY-259" style="shape=partialRectangle;html=1;whiteSpace=wrap;connectable=0;strokeColor=inherit;overflow=hidden;fillColor=none;top=0;left=0;bottom=0;right=0;pointerEvents=1;fontSize=16;swimlaneFillColor=none;" vertex="1" parent="UM2fPUtxfAE8h3gEoYwY-253">
          <mxGeometry x="200" width="40" height="41" as="geometry">
            <mxRectangle width="40" height="41" as="alternateBounds" />
          </mxGeometry>
        </mxCell>
        <mxCell id="UM2fPUtxfAE8h3gEoYwY-260" style="shape=partialRectangle;html=1;whiteSpace=wrap;connectable=0;strokeColor=inherit;overflow=hidden;fillColor=none;top=0;left=0;bottom=0;right=0;pointerEvents=1;fontSize=16;swimlaneFillColor=none;" vertex="1" parent="UM2fPUtxfAE8h3gEoYwY-253">
          <mxGeometry x="240" width="40" height="41" as="geometry">
            <mxRectangle width="40" height="41" as="alternateBounds" />
          </mxGeometry>
        </mxCell>
        <mxCell id="UM2fPUtxfAE8h3gEoYwY-261" style="shape=tableRow;horizontal=0;startSize=0;swimlaneHead=0;swimlaneBody=0;strokeColor=inherit;top=0;left=0;bottom=0;right=0;collapsible=0;dropTarget=0;fillColor=none;points=[[0,0.5],[1,0.5]];portConstraint=eastwest;fontSize=16;swimlaneFillColor=none;" vertex="1" parent="UM2fPUtxfAE8h3gEoYwY-236">
          <mxGeometry y="121" width="280" height="39" as="geometry" />
        </mxCell>
        <mxCell id="UM2fPUtxfAE8h3gEoYwY-262" style="shape=partialRectangle;html=1;whiteSpace=wrap;connectable=0;strokeColor=inherit;overflow=hidden;fillColor=none;top=0;left=0;bottom=0;right=0;pointerEvents=1;fontSize=16;swimlaneFillColor=none;" vertex="1" parent="UM2fPUtxfAE8h3gEoYwY-261">
          <mxGeometry width="40" height="39" as="geometry">
            <mxRectangle width="40" height="39" as="alternateBounds" />
          </mxGeometry>
        </mxCell>
        <mxCell id="UM2fPUtxfAE8h3gEoYwY-263" style="shape=partialRectangle;html=1;whiteSpace=wrap;connectable=0;strokeColor=inherit;overflow=hidden;fillColor=none;top=0;left=0;bottom=0;right=0;pointerEvents=1;fontSize=16;swimlaneFillColor=none;" vertex="1" parent="UM2fPUtxfAE8h3gEoYwY-261">
          <mxGeometry x="40" width="40" height="39" as="geometry">
            <mxRectangle width="40" height="39" as="alternateBounds" />
          </mxGeometry>
        </mxCell>
        <mxCell id="UM2fPUtxfAE8h3gEoYwY-264" style="shape=partialRectangle;html=1;whiteSpace=wrap;connectable=0;strokeColor=inherit;overflow=hidden;fillColor=none;top=0;left=0;bottom=0;right=0;pointerEvents=1;fontSize=16;swimlaneFillColor=none;" vertex="1" parent="UM2fPUtxfAE8h3gEoYwY-261">
          <mxGeometry x="80" width="40" height="39" as="geometry">
            <mxRectangle width="40" height="39" as="alternateBounds" />
          </mxGeometry>
        </mxCell>
        <mxCell id="UM2fPUtxfAE8h3gEoYwY-265" style="shape=partialRectangle;html=1;whiteSpace=wrap;connectable=0;strokeColor=inherit;overflow=hidden;fillColor=none;top=0;left=0;bottom=0;right=0;pointerEvents=1;fontSize=16;swimlaneFillColor=none;" vertex="1" parent="UM2fPUtxfAE8h3gEoYwY-261">
          <mxGeometry x="120" width="40" height="39" as="geometry">
            <mxRectangle width="40" height="39" as="alternateBounds" />
          </mxGeometry>
        </mxCell>
        <mxCell id="UM2fPUtxfAE8h3gEoYwY-266" style="shape=partialRectangle;html=1;whiteSpace=wrap;connectable=0;strokeColor=inherit;overflow=hidden;fillColor=none;top=0;left=0;bottom=0;right=0;pointerEvents=1;fontSize=16;swimlaneFillColor=none;" vertex="1" parent="UM2fPUtxfAE8h3gEoYwY-261">
          <mxGeometry x="160" width="40" height="39" as="geometry">
            <mxRectangle width="40" height="39" as="alternateBounds" />
          </mxGeometry>
        </mxCell>
        <mxCell id="UM2fPUtxfAE8h3gEoYwY-267" style="shape=partialRectangle;html=1;whiteSpace=wrap;connectable=0;strokeColor=inherit;overflow=hidden;fillColor=none;top=0;left=0;bottom=0;right=0;pointerEvents=1;fontSize=16;swimlaneFillColor=none;" vertex="1" parent="UM2fPUtxfAE8h3gEoYwY-261">
          <mxGeometry x="200" width="40" height="39" as="geometry">
            <mxRectangle width="40" height="39" as="alternateBounds" />
          </mxGeometry>
        </mxCell>
        <mxCell id="UM2fPUtxfAE8h3gEoYwY-268" style="shape=partialRectangle;html=1;whiteSpace=wrap;connectable=0;strokeColor=inherit;overflow=hidden;fillColor=none;top=0;left=0;bottom=0;right=0;pointerEvents=1;fontSize=16;swimlaneFillColor=none;" vertex="1" parent="UM2fPUtxfAE8h3gEoYwY-261">
          <mxGeometry x="240" width="40" height="39" as="geometry">
            <mxRectangle width="40" height="39" as="alternateBounds" />
          </mxGeometry>
        </mxCell>
        <mxCell id="UM2fPUtxfAE8h3gEoYwY-269" style="shape=tableRow;horizontal=0;startSize=0;swimlaneHead=0;swimlaneBody=0;strokeColor=inherit;top=0;left=0;bottom=0;right=0;collapsible=0;dropTarget=0;fillColor=none;points=[[0,0.5],[1,0.5]];portConstraint=eastwest;fontSize=16;swimlaneFillColor=none;" vertex="1" parent="UM2fPUtxfAE8h3gEoYwY-236">
          <mxGeometry y="160" width="280" height="40" as="geometry" />
        </mxCell>
        <mxCell id="UM2fPUtxfAE8h3gEoYwY-270" style="shape=partialRectangle;html=1;whiteSpace=wrap;connectable=0;strokeColor=inherit;overflow=hidden;fillColor=none;top=0;left=0;bottom=0;right=0;pointerEvents=1;fontSize=16;swimlaneFillColor=none;" vertex="1" parent="UM2fPUtxfAE8h3gEoYwY-269">
          <mxGeometry width="40" height="40" as="geometry">
            <mxRectangle width="40" height="40" as="alternateBounds" />
          </mxGeometry>
        </mxCell>
        <mxCell id="UM2fPUtxfAE8h3gEoYwY-271" style="shape=partialRectangle;html=1;whiteSpace=wrap;connectable=0;strokeColor=inherit;overflow=hidden;fillColor=none;top=0;left=0;bottom=0;right=0;pointerEvents=1;fontSize=16;swimlaneFillColor=none;" vertex="1" parent="UM2fPUtxfAE8h3gEoYwY-269">
          <mxGeometry x="40" width="40" height="40" as="geometry">
            <mxRectangle width="40" height="40" as="alternateBounds" />
          </mxGeometry>
        </mxCell>
        <mxCell id="UM2fPUtxfAE8h3gEoYwY-272" style="shape=partialRectangle;html=1;whiteSpace=wrap;connectable=0;strokeColor=inherit;overflow=hidden;fillColor=none;top=0;left=0;bottom=0;right=0;pointerEvents=1;fontSize=16;swimlaneFillColor=none;" vertex="1" parent="UM2fPUtxfAE8h3gEoYwY-269">
          <mxGeometry x="80" width="40" height="40" as="geometry">
            <mxRectangle width="40" height="40" as="alternateBounds" />
          </mxGeometry>
        </mxCell>
        <mxCell id="UM2fPUtxfAE8h3gEoYwY-273" style="shape=partialRectangle;html=1;whiteSpace=wrap;connectable=0;strokeColor=inherit;overflow=hidden;fillColor=none;top=0;left=0;bottom=0;right=0;pointerEvents=1;fontSize=16;swimlaneFillColor=none;" vertex="1" parent="UM2fPUtxfAE8h3gEoYwY-269">
          <mxGeometry x="120" width="40" height="40" as="geometry">
            <mxRectangle width="40" height="40" as="alternateBounds" />
          </mxGeometry>
        </mxCell>
        <mxCell id="UM2fPUtxfAE8h3gEoYwY-274" style="shape=partialRectangle;html=1;whiteSpace=wrap;connectable=0;strokeColor=inherit;overflow=hidden;fillColor=none;top=0;left=0;bottom=0;right=0;pointerEvents=1;fontSize=16;swimlaneFillColor=none;" vertex="1" parent="UM2fPUtxfAE8h3gEoYwY-269">
          <mxGeometry x="160" width="40" height="40" as="geometry">
            <mxRectangle width="40" height="40" as="alternateBounds" />
          </mxGeometry>
        </mxCell>
        <mxCell id="UM2fPUtxfAE8h3gEoYwY-275" style="shape=partialRectangle;html=1;whiteSpace=wrap;connectable=0;strokeColor=inherit;overflow=hidden;fillColor=none;top=0;left=0;bottom=0;right=0;pointerEvents=1;fontSize=16;swimlaneFillColor=none;" vertex="1" parent="UM2fPUtxfAE8h3gEoYwY-269">
          <mxGeometry x="200" width="40" height="40" as="geometry">
            <mxRectangle width="40" height="40" as="alternateBounds" />
          </mxGeometry>
        </mxCell>
        <mxCell id="UM2fPUtxfAE8h3gEoYwY-276" style="shape=partialRectangle;html=1;whiteSpace=wrap;connectable=0;strokeColor=inherit;overflow=hidden;fillColor=none;top=0;left=0;bottom=0;right=0;pointerEvents=1;fontSize=16;swimlaneFillColor=none;" vertex="1" parent="UM2fPUtxfAE8h3gEoYwY-269">
          <mxGeometry x="240" width="40" height="40" as="geometry">
            <mxRectangle width="40" height="40" as="alternateBounds" />
          </mxGeometry>
        </mxCell>
        <mxCell id="UM2fPUtxfAE8h3gEoYwY-277" value="" style="shape=tableRow;horizontal=0;startSize=0;swimlaneHead=0;swimlaneBody=0;strokeColor=inherit;top=0;left=0;bottom=0;right=0;collapsible=0;dropTarget=0;fillColor=none;points=[[0,0.5],[1,0.5]];portConstraint=eastwest;fontSize=16;swimlaneFillColor=none;" vertex="1" parent="UM2fPUtxfAE8h3gEoYwY-236">
          <mxGeometry y="200" width="280" height="40" as="geometry" />
        </mxCell>
        <mxCell id="UM2fPUtxfAE8h3gEoYwY-278" style="shape=partialRectangle;html=1;whiteSpace=wrap;connectable=0;strokeColor=inherit;overflow=hidden;fillColor=none;top=0;left=0;bottom=0;right=0;pointerEvents=1;fontSize=16;swimlaneFillColor=none;" vertex="1" parent="UM2fPUtxfAE8h3gEoYwY-277">
          <mxGeometry width="40" height="40" as="geometry">
            <mxRectangle width="40" height="40" as="alternateBounds" />
          </mxGeometry>
        </mxCell>
        <mxCell id="UM2fPUtxfAE8h3gEoYwY-279" style="shape=partialRectangle;html=1;whiteSpace=wrap;connectable=0;strokeColor=inherit;overflow=hidden;fillColor=none;top=0;left=0;bottom=0;right=0;pointerEvents=1;fontSize=16;swimlaneFillColor=none;" vertex="1" parent="UM2fPUtxfAE8h3gEoYwY-277">
          <mxGeometry x="40" width="40" height="40" as="geometry">
            <mxRectangle width="40" height="40" as="alternateBounds" />
          </mxGeometry>
        </mxCell>
        <mxCell id="UM2fPUtxfAE8h3gEoYwY-280" value="" style="shape=partialRectangle;html=1;whiteSpace=wrap;connectable=0;strokeColor=inherit;overflow=hidden;fillColor=none;top=0;left=0;bottom=0;right=0;pointerEvents=1;fontSize=16;swimlaneFillColor=none;" vertex="1" parent="UM2fPUtxfAE8h3gEoYwY-277">
          <mxGeometry x="80" width="40" height="40" as="geometry">
            <mxRectangle width="40" height="40" as="alternateBounds" />
          </mxGeometry>
        </mxCell>
        <mxCell id="UM2fPUtxfAE8h3gEoYwY-281" value="" style="shape=partialRectangle;html=1;whiteSpace=wrap;connectable=0;strokeColor=inherit;overflow=hidden;fillColor=none;top=0;left=0;bottom=0;right=0;pointerEvents=1;fontSize=16;swimlaneFillColor=none;" vertex="1" parent="UM2fPUtxfAE8h3gEoYwY-277">
          <mxGeometry x="120" width="40" height="40" as="geometry">
            <mxRectangle width="40" height="40" as="alternateBounds" />
          </mxGeometry>
        </mxCell>
        <mxCell id="UM2fPUtxfAE8h3gEoYwY-282" value="" style="shape=partialRectangle;html=1;whiteSpace=wrap;connectable=0;strokeColor=inherit;overflow=hidden;fillColor=none;top=0;left=0;bottom=0;right=0;pointerEvents=1;fontSize=16;swimlaneFillColor=none;" vertex="1" parent="UM2fPUtxfAE8h3gEoYwY-277">
          <mxGeometry x="160" width="40" height="40" as="geometry">
            <mxRectangle width="40" height="40" as="alternateBounds" />
          </mxGeometry>
        </mxCell>
        <mxCell id="UM2fPUtxfAE8h3gEoYwY-283" style="shape=partialRectangle;html=1;whiteSpace=wrap;connectable=0;strokeColor=inherit;overflow=hidden;fillColor=none;top=0;left=0;bottom=0;right=0;pointerEvents=1;fontSize=16;swimlaneFillColor=none;" vertex="1" parent="UM2fPUtxfAE8h3gEoYwY-277">
          <mxGeometry x="200" width="40" height="40" as="geometry">
            <mxRectangle width="40" height="40" as="alternateBounds" />
          </mxGeometry>
        </mxCell>
        <mxCell id="UM2fPUtxfAE8h3gEoYwY-284" style="shape=partialRectangle;html=1;whiteSpace=wrap;connectable=0;strokeColor=inherit;overflow=hidden;fillColor=none;top=0;left=0;bottom=0;right=0;pointerEvents=1;fontSize=16;swimlaneFillColor=none;" vertex="1" parent="UM2fPUtxfAE8h3gEoYwY-277">
          <mxGeometry x="240" width="40" height="40" as="geometry">
            <mxRectangle width="40" height="40" as="alternateBounds" />
          </mxGeometry>
        </mxCell>
        <mxCell id="UM2fPUtxfAE8h3gEoYwY-285" style="shape=tableRow;horizontal=0;startSize=0;swimlaneHead=0;swimlaneBody=0;strokeColor=inherit;top=0;left=0;bottom=0;right=0;collapsible=0;dropTarget=0;fillColor=none;points=[[0,0.5],[1,0.5]];portConstraint=eastwest;fontSize=16;swimlaneFillColor=none;" vertex="1" parent="UM2fPUtxfAE8h3gEoYwY-236">
          <mxGeometry y="240" width="280" height="40" as="geometry" />
        </mxCell>
        <mxCell id="UM2fPUtxfAE8h3gEoYwY-286" style="shape=partialRectangle;html=1;whiteSpace=wrap;connectable=0;strokeColor=inherit;overflow=hidden;fillColor=none;top=0;left=0;bottom=0;right=0;pointerEvents=1;fontSize=16;swimlaneFillColor=none;" vertex="1" parent="UM2fPUtxfAE8h3gEoYwY-285">
          <mxGeometry width="40" height="40" as="geometry">
            <mxRectangle width="40" height="40" as="alternateBounds" />
          </mxGeometry>
        </mxCell>
        <mxCell id="UM2fPUtxfAE8h3gEoYwY-287" style="shape=partialRectangle;html=1;whiteSpace=wrap;connectable=0;strokeColor=inherit;overflow=hidden;fillColor=none;top=0;left=0;bottom=0;right=0;pointerEvents=1;fontSize=16;swimlaneFillColor=none;" vertex="1" parent="UM2fPUtxfAE8h3gEoYwY-285">
          <mxGeometry x="40" width="40" height="40" as="geometry">
            <mxRectangle width="40" height="40" as="alternateBounds" />
          </mxGeometry>
        </mxCell>
        <mxCell id="UM2fPUtxfAE8h3gEoYwY-288" style="shape=partialRectangle;html=1;whiteSpace=wrap;connectable=0;strokeColor=inherit;overflow=hidden;fillColor=none;top=0;left=0;bottom=0;right=0;pointerEvents=1;fontSize=16;swimlaneFillColor=none;" vertex="1" parent="UM2fPUtxfAE8h3gEoYwY-285">
          <mxGeometry x="80" width="40" height="40" as="geometry">
            <mxRectangle width="40" height="40" as="alternateBounds" />
          </mxGeometry>
        </mxCell>
        <mxCell id="UM2fPUtxfAE8h3gEoYwY-289" style="shape=partialRectangle;html=1;whiteSpace=wrap;connectable=0;strokeColor=inherit;overflow=hidden;fillColor=none;top=0;left=0;bottom=0;right=0;pointerEvents=1;fontSize=16;swimlaneFillColor=none;" vertex="1" parent="UM2fPUtxfAE8h3gEoYwY-285">
          <mxGeometry x="120" width="40" height="40" as="geometry">
            <mxRectangle width="40" height="40" as="alternateBounds" />
          </mxGeometry>
        </mxCell>
        <mxCell id="UM2fPUtxfAE8h3gEoYwY-290" style="shape=partialRectangle;html=1;whiteSpace=wrap;connectable=0;strokeColor=inherit;overflow=hidden;fillColor=none;top=0;left=0;bottom=0;right=0;pointerEvents=1;fontSize=16;swimlaneFillColor=none;" vertex="1" parent="UM2fPUtxfAE8h3gEoYwY-285">
          <mxGeometry x="160" width="40" height="40" as="geometry">
            <mxRectangle width="40" height="40" as="alternateBounds" />
          </mxGeometry>
        </mxCell>
        <mxCell id="UM2fPUtxfAE8h3gEoYwY-291" style="shape=partialRectangle;html=1;whiteSpace=wrap;connectable=0;strokeColor=inherit;overflow=hidden;fillColor=none;top=0;left=0;bottom=0;right=0;pointerEvents=1;fontSize=16;swimlaneFillColor=none;" vertex="1" parent="UM2fPUtxfAE8h3gEoYwY-285">
          <mxGeometry x="200" width="40" height="40" as="geometry">
            <mxRectangle width="40" height="40" as="alternateBounds" />
          </mxGeometry>
        </mxCell>
        <mxCell id="UM2fPUtxfAE8h3gEoYwY-292" style="shape=partialRectangle;html=1;whiteSpace=wrap;connectable=0;strokeColor=inherit;overflow=hidden;fillColor=none;top=0;left=0;bottom=0;right=0;pointerEvents=1;fontSize=16;swimlaneFillColor=none;" vertex="1" parent="UM2fPUtxfAE8h3gEoYwY-285">
          <mxGeometry x="240" width="40" height="40" as="geometry">
            <mxRectangle width="40" height="40" as="alternateBounds" />
          </mxGeometry>
        </mxCell>
        <mxCell id="UM2fPUtxfAE8h3gEoYwY-53" value="" style="shape=table;startSize=0;container=1;collapsible=0;childLayout=tableLayout;fontSize=16;swimlaneFillColor=none;direction=south;fillStyle=auto;gradientColor=none;dashed=1;" vertex="1" parent="1">
          <mxGeometry x="30" y="62" width="280" height="280" as="geometry" />
        </mxCell>
        <mxCell id="UM2fPUtxfAE8h3gEoYwY-90" style="shape=tableRow;horizontal=0;startSize=0;swimlaneHead=0;swimlaneBody=0;strokeColor=inherit;top=0;left=0;bottom=0;right=0;collapsible=0;dropTarget=0;fillColor=none;points=[[0,0.5],[1,0.5]];portConstraint=eastwest;fontSize=16;swimlaneFillColor=none;" vertex="1" parent="UM2fPUtxfAE8h3gEoYwY-53">
          <mxGeometry width="280" height="40" as="geometry" />
        </mxCell>
        <mxCell id="UM2fPUtxfAE8h3gEoYwY-103" style="shape=partialRectangle;html=1;whiteSpace=wrap;connectable=0;strokeColor=inherit;overflow=hidden;fillColor=none;top=0;left=0;bottom=0;right=0;pointerEvents=1;fontSize=16;swimlaneFillColor=none;" vertex="1" parent="UM2fPUtxfAE8h3gEoYwY-90">
          <mxGeometry width="40" height="40" as="geometry">
            <mxRectangle width="40" height="40" as="alternateBounds" />
          </mxGeometry>
        </mxCell>
        <mxCell id="UM2fPUtxfAE8h3gEoYwY-91" style="shape=partialRectangle;html=1;whiteSpace=wrap;connectable=0;strokeColor=inherit;overflow=hidden;fillColor=none;top=0;left=0;bottom=0;right=0;pointerEvents=1;fontSize=16;swimlaneFillColor=none;" vertex="1" parent="UM2fPUtxfAE8h3gEoYwY-90">
          <mxGeometry x="40" width="40" height="40" as="geometry">
            <mxRectangle width="40" height="40" as="alternateBounds" />
          </mxGeometry>
        </mxCell>
        <mxCell id="UM2fPUtxfAE8h3gEoYwY-92" style="shape=partialRectangle;html=1;whiteSpace=wrap;connectable=0;strokeColor=inherit;overflow=hidden;fillColor=none;top=0;left=0;bottom=0;right=0;pointerEvents=1;fontSize=16;swimlaneFillColor=none;" vertex="1" parent="UM2fPUtxfAE8h3gEoYwY-90">
          <mxGeometry x="80" width="40" height="40" as="geometry">
            <mxRectangle width="40" height="40" as="alternateBounds" />
          </mxGeometry>
        </mxCell>
        <mxCell id="UM2fPUtxfAE8h3gEoYwY-93" style="shape=partialRectangle;html=1;whiteSpace=wrap;connectable=0;strokeColor=inherit;overflow=hidden;fillColor=none;top=0;left=0;bottom=0;right=0;pointerEvents=1;fontSize=16;swimlaneFillColor=none;" vertex="1" parent="UM2fPUtxfAE8h3gEoYwY-90">
          <mxGeometry x="120" width="40" height="40" as="geometry">
            <mxRectangle width="40" height="40" as="alternateBounds" />
          </mxGeometry>
        </mxCell>
        <mxCell id="UM2fPUtxfAE8h3gEoYwY-94" style="shape=partialRectangle;html=1;whiteSpace=wrap;connectable=0;strokeColor=inherit;overflow=hidden;fillColor=none;top=0;left=0;bottom=0;right=0;pointerEvents=1;fontSize=16;swimlaneFillColor=none;" vertex="1" parent="UM2fPUtxfAE8h3gEoYwY-90">
          <mxGeometry x="160" width="40" height="40" as="geometry">
            <mxRectangle width="40" height="40" as="alternateBounds" />
          </mxGeometry>
        </mxCell>
        <mxCell id="UM2fPUtxfAE8h3gEoYwY-95" style="shape=partialRectangle;html=1;whiteSpace=wrap;connectable=0;strokeColor=inherit;overflow=hidden;fillColor=none;top=0;left=0;bottom=0;right=0;pointerEvents=1;fontSize=16;swimlaneFillColor=none;" vertex="1" parent="UM2fPUtxfAE8h3gEoYwY-90">
          <mxGeometry x="200" width="40" height="40" as="geometry">
            <mxRectangle width="40" height="40" as="alternateBounds" />
          </mxGeometry>
        </mxCell>
        <mxCell id="UM2fPUtxfAE8h3gEoYwY-96" style="shape=partialRectangle;html=1;whiteSpace=wrap;connectable=0;strokeColor=inherit;overflow=hidden;fillColor=none;top=0;left=0;bottom=0;right=0;pointerEvents=1;fontSize=16;swimlaneFillColor=none;" vertex="1" parent="UM2fPUtxfAE8h3gEoYwY-90">
          <mxGeometry x="240" width="40" height="40" as="geometry">
            <mxRectangle width="40" height="40" as="alternateBounds" />
          </mxGeometry>
        </mxCell>
        <mxCell id="UM2fPUtxfAE8h3gEoYwY-54" value="" style="shape=tableRow;horizontal=0;startSize=0;swimlaneHead=0;swimlaneBody=0;strokeColor=inherit;top=0;left=0;bottom=0;right=0;collapsible=0;dropTarget=0;fillColor=none;points=[[0,0.5],[1,0.5]];portConstraint=eastwest;fontSize=16;swimlaneFillColor=none;" vertex="1" parent="UM2fPUtxfAE8h3gEoYwY-53">
          <mxGeometry y="40" width="280" height="40" as="geometry" />
        </mxCell>
        <mxCell id="UM2fPUtxfAE8h3gEoYwY-104" style="shape=partialRectangle;html=1;whiteSpace=wrap;connectable=0;strokeColor=inherit;overflow=hidden;fillColor=none;top=0;left=0;bottom=0;right=0;pointerEvents=1;fontSize=16;swimlaneFillColor=none;" vertex="1" parent="UM2fPUtxfAE8h3gEoYwY-54">
          <mxGeometry width="40" height="40" as="geometry">
            <mxRectangle width="40" height="40" as="alternateBounds" />
          </mxGeometry>
        </mxCell>
        <mxCell id="UM2fPUtxfAE8h3gEoYwY-55" style="shape=partialRectangle;html=1;whiteSpace=wrap;connectable=0;strokeColor=inherit;overflow=hidden;fillColor=none;top=0;left=0;bottom=0;right=0;pointerEvents=1;fontSize=16;swimlaneFillColor=none;" vertex="1" parent="UM2fPUtxfAE8h3gEoYwY-54">
          <mxGeometry x="40" width="40" height="40" as="geometry">
            <mxRectangle width="40" height="40" as="alternateBounds" />
          </mxGeometry>
        </mxCell>
        <mxCell id="UM2fPUtxfAE8h3gEoYwY-56" value="" style="shape=partialRectangle;html=1;whiteSpace=wrap;connectable=0;strokeColor=inherit;overflow=hidden;fillColor=none;top=0;left=0;bottom=0;right=0;pointerEvents=1;fontSize=16;swimlaneFillColor=none;" vertex="1" parent="UM2fPUtxfAE8h3gEoYwY-54">
          <mxGeometry x="80" width="40" height="40" as="geometry">
            <mxRectangle width="40" height="40" as="alternateBounds" />
          </mxGeometry>
        </mxCell>
        <mxCell id="UM2fPUtxfAE8h3gEoYwY-57" value="" style="shape=partialRectangle;html=1;whiteSpace=wrap;connectable=0;strokeColor=inherit;overflow=hidden;fillColor=none;top=0;left=0;bottom=0;right=0;pointerEvents=1;fontSize=16;swimlaneFillColor=none;" vertex="1" parent="UM2fPUtxfAE8h3gEoYwY-54">
          <mxGeometry x="120" width="40" height="40" as="geometry">
            <mxRectangle width="40" height="40" as="alternateBounds" />
          </mxGeometry>
        </mxCell>
        <mxCell id="UM2fPUtxfAE8h3gEoYwY-58" value="" style="shape=partialRectangle;html=1;whiteSpace=wrap;connectable=0;strokeColor=inherit;overflow=hidden;fillColor=none;top=0;left=0;bottom=0;right=0;pointerEvents=1;fontSize=16;swimlaneFillColor=none;" vertex="1" parent="UM2fPUtxfAE8h3gEoYwY-54">
          <mxGeometry x="160" width="40" height="40" as="geometry">
            <mxRectangle width="40" height="40" as="alternateBounds" />
          </mxGeometry>
        </mxCell>
        <mxCell id="UM2fPUtxfAE8h3gEoYwY-59" style="shape=partialRectangle;html=1;whiteSpace=wrap;connectable=0;strokeColor=inherit;overflow=hidden;fillColor=none;top=0;left=0;bottom=0;right=0;pointerEvents=1;fontSize=16;swimlaneFillColor=none;" vertex="1" parent="UM2fPUtxfAE8h3gEoYwY-54">
          <mxGeometry x="200" width="40" height="40" as="geometry">
            <mxRectangle width="40" height="40" as="alternateBounds" />
          </mxGeometry>
        </mxCell>
        <mxCell id="UM2fPUtxfAE8h3gEoYwY-97" style="shape=partialRectangle;html=1;whiteSpace=wrap;connectable=0;strokeColor=inherit;overflow=hidden;fillColor=none;top=0;left=0;bottom=0;right=0;pointerEvents=1;fontSize=16;swimlaneFillColor=none;" vertex="1" parent="UM2fPUtxfAE8h3gEoYwY-54">
          <mxGeometry x="240" width="40" height="40" as="geometry">
            <mxRectangle width="40" height="40" as="alternateBounds" />
          </mxGeometry>
        </mxCell>
        <mxCell id="UM2fPUtxfAE8h3gEoYwY-60" value="" style="shape=tableRow;horizontal=0;startSize=0;swimlaneHead=0;swimlaneBody=0;strokeColor=inherit;top=0;left=0;bottom=0;right=0;collapsible=0;dropTarget=0;fillColor=none;points=[[0,0.5],[1,0.5]];portConstraint=eastwest;fontSize=16;swimlaneFillColor=none;" vertex="1" parent="UM2fPUtxfAE8h3gEoYwY-53">
          <mxGeometry y="80" width="280" height="41" as="geometry" />
        </mxCell>
        <mxCell id="UM2fPUtxfAE8h3gEoYwY-105" style="shape=partialRectangle;html=1;whiteSpace=wrap;connectable=0;strokeColor=inherit;overflow=hidden;fillColor=none;top=0;left=0;bottom=0;right=0;pointerEvents=1;fontSize=16;swimlaneFillColor=none;" vertex="1" parent="UM2fPUtxfAE8h3gEoYwY-60">
          <mxGeometry width="40" height="41" as="geometry">
            <mxRectangle width="40" height="41" as="alternateBounds" />
          </mxGeometry>
        </mxCell>
        <mxCell id="UM2fPUtxfAE8h3gEoYwY-61" style="shape=partialRectangle;html=1;whiteSpace=wrap;connectable=0;strokeColor=inherit;overflow=hidden;fillColor=none;top=0;left=0;bottom=0;right=0;pointerEvents=1;fontSize=16;swimlaneFillColor=none;" vertex="1" parent="UM2fPUtxfAE8h3gEoYwY-60">
          <mxGeometry x="40" width="40" height="41" as="geometry">
            <mxRectangle width="40" height="41" as="alternateBounds" />
          </mxGeometry>
        </mxCell>
        <mxCell id="UM2fPUtxfAE8h3gEoYwY-62" value="" style="shape=partialRectangle;html=1;whiteSpace=wrap;connectable=0;strokeColor=inherit;overflow=hidden;fillColor=none;top=0;left=0;bottom=0;right=0;pointerEvents=1;fontSize=16;swimlaneFillColor=none;" vertex="1" parent="UM2fPUtxfAE8h3gEoYwY-60">
          <mxGeometry x="80" width="40" height="41" as="geometry">
            <mxRectangle width="40" height="41" as="alternateBounds" />
          </mxGeometry>
        </mxCell>
        <mxCell id="UM2fPUtxfAE8h3gEoYwY-63" value="" style="shape=partialRectangle;html=1;whiteSpace=wrap;connectable=0;strokeColor=inherit;overflow=hidden;fillColor=none;top=0;left=0;bottom=0;right=0;pointerEvents=1;fontSize=16;swimlaneFillColor=none;" vertex="1" parent="UM2fPUtxfAE8h3gEoYwY-60">
          <mxGeometry x="120" width="40" height="41" as="geometry">
            <mxRectangle width="40" height="41" as="alternateBounds" />
          </mxGeometry>
        </mxCell>
        <mxCell id="UM2fPUtxfAE8h3gEoYwY-64" value="" style="shape=partialRectangle;html=1;whiteSpace=wrap;connectable=0;strokeColor=inherit;overflow=hidden;fillColor=none;top=0;left=0;bottom=0;right=0;pointerEvents=1;fontSize=16;swimlaneFillColor=none;" vertex="1" parent="UM2fPUtxfAE8h3gEoYwY-60">
          <mxGeometry x="160" width="40" height="41" as="geometry">
            <mxRectangle width="40" height="41" as="alternateBounds" />
          </mxGeometry>
        </mxCell>
        <mxCell id="UM2fPUtxfAE8h3gEoYwY-65" style="shape=partialRectangle;html=1;whiteSpace=wrap;connectable=0;strokeColor=inherit;overflow=hidden;fillColor=none;top=0;left=0;bottom=0;right=0;pointerEvents=1;fontSize=16;swimlaneFillColor=none;" vertex="1" parent="UM2fPUtxfAE8h3gEoYwY-60">
          <mxGeometry x="200" width="40" height="41" as="geometry">
            <mxRectangle width="40" height="41" as="alternateBounds" />
          </mxGeometry>
        </mxCell>
        <mxCell id="UM2fPUtxfAE8h3gEoYwY-98" style="shape=partialRectangle;html=1;whiteSpace=wrap;connectable=0;strokeColor=inherit;overflow=hidden;fillColor=none;top=0;left=0;bottom=0;right=0;pointerEvents=1;fontSize=16;swimlaneFillColor=none;" vertex="1" parent="UM2fPUtxfAE8h3gEoYwY-60">
          <mxGeometry x="240" width="40" height="41" as="geometry">
            <mxRectangle width="40" height="41" as="alternateBounds" />
          </mxGeometry>
        </mxCell>
        <mxCell id="UM2fPUtxfAE8h3gEoYwY-66" style="shape=tableRow;horizontal=0;startSize=0;swimlaneHead=0;swimlaneBody=0;strokeColor=inherit;top=0;left=0;bottom=0;right=0;collapsible=0;dropTarget=0;fillColor=none;points=[[0,0.5],[1,0.5]];portConstraint=eastwest;fontSize=16;swimlaneFillColor=none;" vertex="1" parent="UM2fPUtxfAE8h3gEoYwY-53">
          <mxGeometry y="121" width="280" height="39" as="geometry" />
        </mxCell>
        <mxCell id="UM2fPUtxfAE8h3gEoYwY-106" style="shape=partialRectangle;html=1;whiteSpace=wrap;connectable=0;strokeColor=inherit;overflow=hidden;fillColor=none;top=0;left=0;bottom=0;right=0;pointerEvents=1;fontSize=16;swimlaneFillColor=none;" vertex="1" parent="UM2fPUtxfAE8h3gEoYwY-66">
          <mxGeometry width="40" height="39" as="geometry">
            <mxRectangle width="40" height="39" as="alternateBounds" />
          </mxGeometry>
        </mxCell>
        <mxCell id="UM2fPUtxfAE8h3gEoYwY-67" style="shape=partialRectangle;html=1;whiteSpace=wrap;connectable=0;strokeColor=inherit;overflow=hidden;fillColor=none;top=0;left=0;bottom=0;right=0;pointerEvents=1;fontSize=16;swimlaneFillColor=none;" vertex="1" parent="UM2fPUtxfAE8h3gEoYwY-66">
          <mxGeometry x="40" width="40" height="39" as="geometry">
            <mxRectangle width="40" height="39" as="alternateBounds" />
          </mxGeometry>
        </mxCell>
        <mxCell id="UM2fPUtxfAE8h3gEoYwY-68" style="shape=partialRectangle;html=1;whiteSpace=wrap;connectable=0;strokeColor=inherit;overflow=hidden;fillColor=none;top=0;left=0;bottom=0;right=0;pointerEvents=1;fontSize=16;swimlaneFillColor=none;" vertex="1" parent="UM2fPUtxfAE8h3gEoYwY-66">
          <mxGeometry x="80" width="40" height="39" as="geometry">
            <mxRectangle width="40" height="39" as="alternateBounds" />
          </mxGeometry>
        </mxCell>
        <mxCell id="UM2fPUtxfAE8h3gEoYwY-69" style="shape=partialRectangle;html=1;whiteSpace=wrap;connectable=0;strokeColor=inherit;overflow=hidden;fillColor=none;top=0;left=0;bottom=0;right=0;pointerEvents=1;fontSize=16;swimlaneFillColor=none;" vertex="1" parent="UM2fPUtxfAE8h3gEoYwY-66">
          <mxGeometry x="120" width="40" height="39" as="geometry">
            <mxRectangle width="40" height="39" as="alternateBounds" />
          </mxGeometry>
        </mxCell>
        <mxCell id="UM2fPUtxfAE8h3gEoYwY-70" style="shape=partialRectangle;html=1;whiteSpace=wrap;connectable=0;strokeColor=inherit;overflow=hidden;fillColor=none;top=0;left=0;bottom=0;right=0;pointerEvents=1;fontSize=16;swimlaneFillColor=none;" vertex="1" parent="UM2fPUtxfAE8h3gEoYwY-66">
          <mxGeometry x="160" width="40" height="39" as="geometry">
            <mxRectangle width="40" height="39" as="alternateBounds" />
          </mxGeometry>
        </mxCell>
        <mxCell id="UM2fPUtxfAE8h3gEoYwY-71" style="shape=partialRectangle;html=1;whiteSpace=wrap;connectable=0;strokeColor=inherit;overflow=hidden;fillColor=none;top=0;left=0;bottom=0;right=0;pointerEvents=1;fontSize=16;swimlaneFillColor=none;" vertex="1" parent="UM2fPUtxfAE8h3gEoYwY-66">
          <mxGeometry x="200" width="40" height="39" as="geometry">
            <mxRectangle width="40" height="39" as="alternateBounds" />
          </mxGeometry>
        </mxCell>
        <mxCell id="UM2fPUtxfAE8h3gEoYwY-99" style="shape=partialRectangle;html=1;whiteSpace=wrap;connectable=0;strokeColor=inherit;overflow=hidden;fillColor=none;top=0;left=0;bottom=0;right=0;pointerEvents=1;fontSize=16;swimlaneFillColor=none;" vertex="1" parent="UM2fPUtxfAE8h3gEoYwY-66">
          <mxGeometry x="240" width="40" height="39" as="geometry">
            <mxRectangle width="40" height="39" as="alternateBounds" />
          </mxGeometry>
        </mxCell>
        <mxCell id="UM2fPUtxfAE8h3gEoYwY-72" style="shape=tableRow;horizontal=0;startSize=0;swimlaneHead=0;swimlaneBody=0;strokeColor=inherit;top=0;left=0;bottom=0;right=0;collapsible=0;dropTarget=0;fillColor=none;points=[[0,0.5],[1,0.5]];portConstraint=eastwest;fontSize=16;swimlaneFillColor=none;" vertex="1" parent="UM2fPUtxfAE8h3gEoYwY-53">
          <mxGeometry y="160" width="280" height="40" as="geometry" />
        </mxCell>
        <mxCell id="UM2fPUtxfAE8h3gEoYwY-107" style="shape=partialRectangle;html=1;whiteSpace=wrap;connectable=0;strokeColor=inherit;overflow=hidden;fillColor=none;top=0;left=0;bottom=0;right=0;pointerEvents=1;fontSize=16;swimlaneFillColor=none;" vertex="1" parent="UM2fPUtxfAE8h3gEoYwY-72">
          <mxGeometry width="40" height="40" as="geometry">
            <mxRectangle width="40" height="40" as="alternateBounds" />
          </mxGeometry>
        </mxCell>
        <mxCell id="UM2fPUtxfAE8h3gEoYwY-73" style="shape=partialRectangle;html=1;whiteSpace=wrap;connectable=0;strokeColor=inherit;overflow=hidden;fillColor=none;top=0;left=0;bottom=0;right=0;pointerEvents=1;fontSize=16;swimlaneFillColor=none;" vertex="1" parent="UM2fPUtxfAE8h3gEoYwY-72">
          <mxGeometry x="40" width="40" height="40" as="geometry">
            <mxRectangle width="40" height="40" as="alternateBounds" />
          </mxGeometry>
        </mxCell>
        <mxCell id="UM2fPUtxfAE8h3gEoYwY-74" style="shape=partialRectangle;html=1;whiteSpace=wrap;connectable=0;strokeColor=inherit;overflow=hidden;fillColor=none;top=0;left=0;bottom=0;right=0;pointerEvents=1;fontSize=16;swimlaneFillColor=none;" vertex="1" parent="UM2fPUtxfAE8h3gEoYwY-72">
          <mxGeometry x="80" width="40" height="40" as="geometry">
            <mxRectangle width="40" height="40" as="alternateBounds" />
          </mxGeometry>
        </mxCell>
        <mxCell id="UM2fPUtxfAE8h3gEoYwY-75" style="shape=partialRectangle;html=1;whiteSpace=wrap;connectable=0;strokeColor=inherit;overflow=hidden;fillColor=none;top=0;left=0;bottom=0;right=0;pointerEvents=1;fontSize=16;swimlaneFillColor=none;" vertex="1" parent="UM2fPUtxfAE8h3gEoYwY-72">
          <mxGeometry x="120" width="40" height="40" as="geometry">
            <mxRectangle width="40" height="40" as="alternateBounds" />
          </mxGeometry>
        </mxCell>
        <mxCell id="UM2fPUtxfAE8h3gEoYwY-76" style="shape=partialRectangle;html=1;whiteSpace=wrap;connectable=0;strokeColor=inherit;overflow=hidden;fillColor=none;top=0;left=0;bottom=0;right=0;pointerEvents=1;fontSize=16;swimlaneFillColor=none;" vertex="1" parent="UM2fPUtxfAE8h3gEoYwY-72">
          <mxGeometry x="160" width="40" height="40" as="geometry">
            <mxRectangle width="40" height="40" as="alternateBounds" />
          </mxGeometry>
        </mxCell>
        <mxCell id="UM2fPUtxfAE8h3gEoYwY-77" style="shape=partialRectangle;html=1;whiteSpace=wrap;connectable=0;strokeColor=inherit;overflow=hidden;fillColor=none;top=0;left=0;bottom=0;right=0;pointerEvents=1;fontSize=16;swimlaneFillColor=none;" vertex="1" parent="UM2fPUtxfAE8h3gEoYwY-72">
          <mxGeometry x="200" width="40" height="40" as="geometry">
            <mxRectangle width="40" height="40" as="alternateBounds" />
          </mxGeometry>
        </mxCell>
        <mxCell id="UM2fPUtxfAE8h3gEoYwY-100" style="shape=partialRectangle;html=1;whiteSpace=wrap;connectable=0;strokeColor=inherit;overflow=hidden;fillColor=none;top=0;left=0;bottom=0;right=0;pointerEvents=1;fontSize=16;swimlaneFillColor=none;" vertex="1" parent="UM2fPUtxfAE8h3gEoYwY-72">
          <mxGeometry x="240" width="40" height="40" as="geometry">
            <mxRectangle width="40" height="40" as="alternateBounds" />
          </mxGeometry>
        </mxCell>
        <mxCell id="UM2fPUtxfAE8h3gEoYwY-78" value="" style="shape=tableRow;horizontal=0;startSize=0;swimlaneHead=0;swimlaneBody=0;strokeColor=inherit;top=0;left=0;bottom=0;right=0;collapsible=0;dropTarget=0;fillColor=none;points=[[0,0.5],[1,0.5]];portConstraint=eastwest;fontSize=16;swimlaneFillColor=none;" vertex="1" parent="UM2fPUtxfAE8h3gEoYwY-53">
          <mxGeometry y="200" width="280" height="40" as="geometry" />
        </mxCell>
        <mxCell id="UM2fPUtxfAE8h3gEoYwY-108" style="shape=partialRectangle;html=1;whiteSpace=wrap;connectable=0;strokeColor=inherit;overflow=hidden;fillColor=none;top=0;left=0;bottom=0;right=0;pointerEvents=1;fontSize=16;swimlaneFillColor=none;" vertex="1" parent="UM2fPUtxfAE8h3gEoYwY-78">
          <mxGeometry width="40" height="40" as="geometry">
            <mxRectangle width="40" height="40" as="alternateBounds" />
          </mxGeometry>
        </mxCell>
        <mxCell id="UM2fPUtxfAE8h3gEoYwY-79" style="shape=partialRectangle;html=1;whiteSpace=wrap;connectable=0;strokeColor=inherit;overflow=hidden;fillColor=none;top=0;left=0;bottom=0;right=0;pointerEvents=1;fontSize=16;swimlaneFillColor=none;" vertex="1" parent="UM2fPUtxfAE8h3gEoYwY-78">
          <mxGeometry x="40" width="40" height="40" as="geometry">
            <mxRectangle width="40" height="40" as="alternateBounds" />
          </mxGeometry>
        </mxCell>
        <mxCell id="UM2fPUtxfAE8h3gEoYwY-80" value="" style="shape=partialRectangle;html=1;whiteSpace=wrap;connectable=0;strokeColor=inherit;overflow=hidden;fillColor=none;top=0;left=0;bottom=0;right=0;pointerEvents=1;fontSize=16;swimlaneFillColor=none;" vertex="1" parent="UM2fPUtxfAE8h3gEoYwY-78">
          <mxGeometry x="80" width="40" height="40" as="geometry">
            <mxRectangle width="40" height="40" as="alternateBounds" />
          </mxGeometry>
        </mxCell>
        <mxCell id="UM2fPUtxfAE8h3gEoYwY-81" value="" style="shape=partialRectangle;html=1;whiteSpace=wrap;connectable=0;strokeColor=inherit;overflow=hidden;fillColor=none;top=0;left=0;bottom=0;right=0;pointerEvents=1;fontSize=16;swimlaneFillColor=none;" vertex="1" parent="UM2fPUtxfAE8h3gEoYwY-78">
          <mxGeometry x="120" width="40" height="40" as="geometry">
            <mxRectangle width="40" height="40" as="alternateBounds" />
          </mxGeometry>
        </mxCell>
        <mxCell id="UM2fPUtxfAE8h3gEoYwY-82" value="" style="shape=partialRectangle;html=1;whiteSpace=wrap;connectable=0;strokeColor=inherit;overflow=hidden;fillColor=none;top=0;left=0;bottom=0;right=0;pointerEvents=1;fontSize=16;swimlaneFillColor=none;" vertex="1" parent="UM2fPUtxfAE8h3gEoYwY-78">
          <mxGeometry x="160" width="40" height="40" as="geometry">
            <mxRectangle width="40" height="40" as="alternateBounds" />
          </mxGeometry>
        </mxCell>
        <mxCell id="UM2fPUtxfAE8h3gEoYwY-83" style="shape=partialRectangle;html=1;whiteSpace=wrap;connectable=0;strokeColor=inherit;overflow=hidden;fillColor=none;top=0;left=0;bottom=0;right=0;pointerEvents=1;fontSize=16;swimlaneFillColor=none;" vertex="1" parent="UM2fPUtxfAE8h3gEoYwY-78">
          <mxGeometry x="200" width="40" height="40" as="geometry">
            <mxRectangle width="40" height="40" as="alternateBounds" />
          </mxGeometry>
        </mxCell>
        <mxCell id="UM2fPUtxfAE8h3gEoYwY-101" style="shape=partialRectangle;html=1;whiteSpace=wrap;connectable=0;strokeColor=inherit;overflow=hidden;fillColor=none;top=0;left=0;bottom=0;right=0;pointerEvents=1;fontSize=16;swimlaneFillColor=none;" vertex="1" parent="UM2fPUtxfAE8h3gEoYwY-78">
          <mxGeometry x="240" width="40" height="40" as="geometry">
            <mxRectangle width="40" height="40" as="alternateBounds" />
          </mxGeometry>
        </mxCell>
        <mxCell id="UM2fPUtxfAE8h3gEoYwY-84" style="shape=tableRow;horizontal=0;startSize=0;swimlaneHead=0;swimlaneBody=0;strokeColor=inherit;top=0;left=0;bottom=0;right=0;collapsible=0;dropTarget=0;fillColor=none;points=[[0,0.5],[1,0.5]];portConstraint=eastwest;fontSize=16;swimlaneFillColor=none;" vertex="1" parent="UM2fPUtxfAE8h3gEoYwY-53">
          <mxGeometry y="240" width="280" height="40" as="geometry" />
        </mxCell>
        <mxCell id="UM2fPUtxfAE8h3gEoYwY-109" style="shape=partialRectangle;html=1;whiteSpace=wrap;connectable=0;strokeColor=inherit;overflow=hidden;fillColor=none;top=0;left=0;bottom=0;right=0;pointerEvents=1;fontSize=16;swimlaneFillColor=none;" vertex="1" parent="UM2fPUtxfAE8h3gEoYwY-84">
          <mxGeometry width="40" height="40" as="geometry">
            <mxRectangle width="40" height="40" as="alternateBounds" />
          </mxGeometry>
        </mxCell>
        <mxCell id="UM2fPUtxfAE8h3gEoYwY-85" style="shape=partialRectangle;html=1;whiteSpace=wrap;connectable=0;strokeColor=inherit;overflow=hidden;fillColor=none;top=0;left=0;bottom=0;right=0;pointerEvents=1;fontSize=16;swimlaneFillColor=none;" vertex="1" parent="UM2fPUtxfAE8h3gEoYwY-84">
          <mxGeometry x="40" width="40" height="40" as="geometry">
            <mxRectangle width="40" height="40" as="alternateBounds" />
          </mxGeometry>
        </mxCell>
        <mxCell id="UM2fPUtxfAE8h3gEoYwY-86" style="shape=partialRectangle;html=1;whiteSpace=wrap;connectable=0;strokeColor=inherit;overflow=hidden;fillColor=none;top=0;left=0;bottom=0;right=0;pointerEvents=1;fontSize=16;swimlaneFillColor=none;" vertex="1" parent="UM2fPUtxfAE8h3gEoYwY-84">
          <mxGeometry x="80" width="40" height="40" as="geometry">
            <mxRectangle width="40" height="40" as="alternateBounds" />
          </mxGeometry>
        </mxCell>
        <mxCell id="UM2fPUtxfAE8h3gEoYwY-87" style="shape=partialRectangle;html=1;whiteSpace=wrap;connectable=0;strokeColor=inherit;overflow=hidden;fillColor=none;top=0;left=0;bottom=0;right=0;pointerEvents=1;fontSize=16;swimlaneFillColor=none;" vertex="1" parent="UM2fPUtxfAE8h3gEoYwY-84">
          <mxGeometry x="120" width="40" height="40" as="geometry">
            <mxRectangle width="40" height="40" as="alternateBounds" />
          </mxGeometry>
        </mxCell>
        <mxCell id="UM2fPUtxfAE8h3gEoYwY-88" style="shape=partialRectangle;html=1;whiteSpace=wrap;connectable=0;strokeColor=inherit;overflow=hidden;fillColor=none;top=0;left=0;bottom=0;right=0;pointerEvents=1;fontSize=16;swimlaneFillColor=none;" vertex="1" parent="UM2fPUtxfAE8h3gEoYwY-84">
          <mxGeometry x="160" width="40" height="40" as="geometry">
            <mxRectangle width="40" height="40" as="alternateBounds" />
          </mxGeometry>
        </mxCell>
        <mxCell id="UM2fPUtxfAE8h3gEoYwY-89" style="shape=partialRectangle;html=1;whiteSpace=wrap;connectable=0;strokeColor=inherit;overflow=hidden;fillColor=none;top=0;left=0;bottom=0;right=0;pointerEvents=1;fontSize=16;swimlaneFillColor=none;" vertex="1" parent="UM2fPUtxfAE8h3gEoYwY-84">
          <mxGeometry x="200" width="40" height="40" as="geometry">
            <mxRectangle width="40" height="40" as="alternateBounds" />
          </mxGeometry>
        </mxCell>
        <mxCell id="UM2fPUtxfAE8h3gEoYwY-102" style="shape=partialRectangle;html=1;whiteSpace=wrap;connectable=0;strokeColor=inherit;overflow=hidden;fillColor=none;top=0;left=0;bottom=0;right=0;pointerEvents=1;fontSize=16;swimlaneFillColor=none;" vertex="1" parent="UM2fPUtxfAE8h3gEoYwY-84">
          <mxGeometry x="240" width="40" height="40" as="geometry">
            <mxRectangle width="40" height="40" as="alternateBounds" />
          </mxGeometry>
        </mxCell>
        <mxCell id="UM2fPUtxfAE8h3gEoYwY-1" value="" style="shape=table;startSize=0;container=1;collapsible=0;childLayout=tableLayout;fontSize=16;swimlaneFillColor=none;direction=south;fillStyle=auto;gradientColor=none;fillColor=default;" vertex="1" parent="1">
          <mxGeometry x="70" y="102" width="200" height="200" as="geometry" />
        </mxCell>
        <mxCell id="UM2fPUtxfAE8h3gEoYwY-2" value="" style="shape=tableRow;horizontal=0;startSize=0;swimlaneHead=0;swimlaneBody=0;strokeColor=inherit;top=0;left=0;bottom=0;right=0;collapsible=0;dropTarget=0;fillColor=none;points=[[0,0.5],[1,0.5]];portConstraint=eastwest;fontSize=16;swimlaneFillColor=none;" vertex="1" parent="UM2fPUtxfAE8h3gEoYwY-1">
          <mxGeometry width="200" height="40" as="geometry" />
        </mxCell>
        <mxCell id="UM2fPUtxfAE8h3gEoYwY-14" value="1" style="shape=partialRectangle;html=1;whiteSpace=wrap;connectable=0;strokeColor=inherit;overflow=hidden;fillColor=none;top=0;left=0;bottom=0;right=0;pointerEvents=1;fontSize=16;swimlaneFillColor=none;" vertex="1" parent="UM2fPUtxfAE8h3gEoYwY-2">
          <mxGeometry width="40" height="40" as="geometry">
            <mxRectangle width="40" height="40" as="alternateBounds" />
          </mxGeometry>
        </mxCell>
        <mxCell id="UM2fPUtxfAE8h3gEoYwY-3" value="2" style="shape=partialRectangle;html=1;whiteSpace=wrap;connectable=0;strokeColor=inherit;overflow=hidden;fillColor=none;top=0;left=0;bottom=0;right=0;pointerEvents=1;fontSize=16;swimlaneFillColor=none;" vertex="1" parent="UM2fPUtxfAE8h3gEoYwY-2">
          <mxGeometry x="40" width="40" height="40" as="geometry">
            <mxRectangle width="40" height="40" as="alternateBounds" />
          </mxGeometry>
        </mxCell>
        <mxCell id="UM2fPUtxfAE8h3gEoYwY-4" value="5" style="shape=partialRectangle;html=1;whiteSpace=wrap;connectable=0;strokeColor=inherit;overflow=hidden;fillColor=none;top=0;left=0;bottom=0;right=0;pointerEvents=1;fontSize=16;swimlaneFillColor=none;" vertex="1" parent="UM2fPUtxfAE8h3gEoYwY-2">
          <mxGeometry x="80" width="40" height="40" as="geometry">
            <mxRectangle width="40" height="40" as="alternateBounds" />
          </mxGeometry>
        </mxCell>
        <mxCell id="UM2fPUtxfAE8h3gEoYwY-5" value="3" style="shape=partialRectangle;html=1;whiteSpace=wrap;connectable=0;strokeColor=inherit;overflow=hidden;fillColor=none;top=0;left=0;bottom=0;right=0;pointerEvents=1;fontSize=16;swimlaneFillColor=none;" vertex="1" parent="UM2fPUtxfAE8h3gEoYwY-2">
          <mxGeometry x="120" width="40" height="40" as="geometry">
            <mxRectangle width="40" height="40" as="alternateBounds" />
          </mxGeometry>
        </mxCell>
        <mxCell id="UM2fPUtxfAE8h3gEoYwY-35" value="1" style="shape=partialRectangle;html=1;whiteSpace=wrap;connectable=0;strokeColor=inherit;overflow=hidden;fillColor=none;top=0;left=0;bottom=0;right=0;pointerEvents=1;fontSize=16;swimlaneFillColor=none;" vertex="1" parent="UM2fPUtxfAE8h3gEoYwY-2">
          <mxGeometry x="160" width="40" height="40" as="geometry">
            <mxRectangle width="40" height="40" as="alternateBounds" />
          </mxGeometry>
        </mxCell>
        <mxCell id="UM2fPUtxfAE8h3gEoYwY-6" value="" style="shape=tableRow;horizontal=0;startSize=0;swimlaneHead=0;swimlaneBody=0;strokeColor=inherit;top=0;left=0;bottom=0;right=0;collapsible=0;dropTarget=0;fillColor=none;points=[[0,0.5],[1,0.5]];portConstraint=eastwest;fontSize=16;swimlaneFillColor=none;" vertex="1" parent="UM2fPUtxfAE8h3gEoYwY-1">
          <mxGeometry y="40" width="200" height="41" as="geometry" />
        </mxCell>
        <mxCell id="UM2fPUtxfAE8h3gEoYwY-15" value="4" style="shape=partialRectangle;html=1;whiteSpace=wrap;connectable=0;strokeColor=inherit;overflow=hidden;fillColor=none;top=0;left=0;bottom=0;right=0;pointerEvents=1;fontSize=16;swimlaneFillColor=none;" vertex="1" parent="UM2fPUtxfAE8h3gEoYwY-6">
          <mxGeometry width="40" height="41" as="geometry">
            <mxRectangle width="40" height="41" as="alternateBounds" />
          </mxGeometry>
        </mxCell>
        <mxCell id="UM2fPUtxfAE8h3gEoYwY-7" value="1" style="shape=partialRectangle;html=1;whiteSpace=wrap;connectable=0;strokeColor=#b85450;overflow=hidden;fillColor=#f8cecc;top=0;left=0;bottom=0;right=0;pointerEvents=1;fontSize=16;swimlaneFillColor=none;" vertex="1" parent="UM2fPUtxfAE8h3gEoYwY-6">
          <mxGeometry x="40" width="40" height="41" as="geometry">
            <mxRectangle width="40" height="41" as="alternateBounds" />
          </mxGeometry>
        </mxCell>
        <mxCell id="UM2fPUtxfAE8h3gEoYwY-8" value="-3" style="shape=partialRectangle;html=1;whiteSpace=wrap;connectable=0;strokeColor=inherit;overflow=hidden;fillColor=none;top=0;left=0;bottom=0;right=0;pointerEvents=1;fontSize=16;swimlaneFillColor=none;" vertex="1" parent="UM2fPUtxfAE8h3gEoYwY-6">
          <mxGeometry x="80" width="40" height="41" as="geometry">
            <mxRectangle width="40" height="41" as="alternateBounds" />
          </mxGeometry>
        </mxCell>
        <mxCell id="UM2fPUtxfAE8h3gEoYwY-9" value="2" style="shape=partialRectangle;html=1;whiteSpace=wrap;connectable=0;strokeColor=inherit;overflow=hidden;fillColor=none;top=0;left=0;bottom=0;right=0;pointerEvents=1;fontSize=16;swimlaneFillColor=none;" vertex="1" parent="UM2fPUtxfAE8h3gEoYwY-6">
          <mxGeometry x="120" width="40" height="41" as="geometry">
            <mxRectangle width="40" height="41" as="alternateBounds" />
          </mxGeometry>
        </mxCell>
        <mxCell id="UM2fPUtxfAE8h3gEoYwY-36" value="2" style="shape=partialRectangle;html=1;whiteSpace=wrap;connectable=0;strokeColor=inherit;overflow=hidden;fillColor=none;top=0;left=0;bottom=0;right=0;pointerEvents=1;fontSize=16;swimlaneFillColor=none;" vertex="1" parent="UM2fPUtxfAE8h3gEoYwY-6">
          <mxGeometry x="160" width="40" height="41" as="geometry">
            <mxRectangle width="40" height="41" as="alternateBounds" />
          </mxGeometry>
        </mxCell>
        <mxCell id="UM2fPUtxfAE8h3gEoYwY-41" style="shape=tableRow;horizontal=0;startSize=0;swimlaneHead=0;swimlaneBody=0;strokeColor=inherit;top=0;left=0;bottom=0;right=0;collapsible=0;dropTarget=0;fillColor=none;points=[[0,0.5],[1,0.5]];portConstraint=eastwest;fontSize=16;swimlaneFillColor=none;" vertex="1" parent="UM2fPUtxfAE8h3gEoYwY-1">
          <mxGeometry y="81" width="200" height="39" as="geometry" />
        </mxCell>
        <mxCell id="UM2fPUtxfAE8h3gEoYwY-42" value="0" style="shape=partialRectangle;html=1;whiteSpace=wrap;connectable=0;strokeColor=inherit;overflow=hidden;fillColor=none;top=0;left=0;bottom=0;right=0;pointerEvents=1;fontSize=16;swimlaneFillColor=none;" vertex="1" parent="UM2fPUtxfAE8h3gEoYwY-41">
          <mxGeometry width="40" height="39" as="geometry">
            <mxRectangle width="40" height="39" as="alternateBounds" />
          </mxGeometry>
        </mxCell>
        <mxCell id="UM2fPUtxfAE8h3gEoYwY-43" value="-3" style="shape=partialRectangle;html=1;whiteSpace=wrap;connectable=0;strokeColor=inherit;overflow=hidden;fillColor=none;top=0;left=0;bottom=0;right=0;pointerEvents=1;fontSize=16;swimlaneFillColor=none;" vertex="1" parent="UM2fPUtxfAE8h3gEoYwY-41">
          <mxGeometry x="40" width="40" height="39" as="geometry">
            <mxRectangle width="40" height="39" as="alternateBounds" />
          </mxGeometry>
        </mxCell>
        <mxCell id="UM2fPUtxfAE8h3gEoYwY-44" value="1" style="shape=partialRectangle;html=1;whiteSpace=wrap;connectable=0;strokeColor=inherit;overflow=hidden;fillColor=none;top=0;left=0;bottom=0;right=0;pointerEvents=1;fontSize=16;swimlaneFillColor=none;" vertex="1" parent="UM2fPUtxfAE8h3gEoYwY-41">
          <mxGeometry x="80" width="40" height="39" as="geometry">
            <mxRectangle width="40" height="39" as="alternateBounds" />
          </mxGeometry>
        </mxCell>
        <mxCell id="UM2fPUtxfAE8h3gEoYwY-45" value="4" style="shape=partialRectangle;html=1;whiteSpace=wrap;connectable=0;strokeColor=inherit;overflow=hidden;fillColor=none;top=0;left=0;bottom=0;right=0;pointerEvents=1;fontSize=16;swimlaneFillColor=none;" vertex="1" parent="UM2fPUtxfAE8h3gEoYwY-41">
          <mxGeometry x="120" width="40" height="39" as="geometry">
            <mxRectangle width="40" height="39" as="alternateBounds" />
          </mxGeometry>
        </mxCell>
        <mxCell id="UM2fPUtxfAE8h3gEoYwY-46" value="2" style="shape=partialRectangle;html=1;whiteSpace=wrap;connectable=0;strokeColor=inherit;overflow=hidden;fillColor=none;top=0;left=0;bottom=0;right=0;pointerEvents=1;fontSize=16;swimlaneFillColor=none;" vertex="1" parent="UM2fPUtxfAE8h3gEoYwY-41">
          <mxGeometry x="160" width="40" height="39" as="geometry">
            <mxRectangle width="40" height="39" as="alternateBounds" />
          </mxGeometry>
        </mxCell>
        <mxCell id="UM2fPUtxfAE8h3gEoYwY-47" style="shape=tableRow;horizontal=0;startSize=0;swimlaneHead=0;swimlaneBody=0;strokeColor=inherit;top=0;left=0;bottom=0;right=0;collapsible=0;dropTarget=0;fillColor=none;points=[[0,0.5],[1,0.5]];portConstraint=eastwest;fontSize=16;swimlaneFillColor=none;" vertex="1" parent="UM2fPUtxfAE8h3gEoYwY-1">
          <mxGeometry y="120" width="200" height="40" as="geometry" />
        </mxCell>
        <mxCell id="UM2fPUtxfAE8h3gEoYwY-48" value="-1" style="shape=partialRectangle;html=1;whiteSpace=wrap;connectable=0;strokeColor=inherit;overflow=hidden;fillColor=none;top=0;left=0;bottom=0;right=0;pointerEvents=1;fontSize=16;swimlaneFillColor=none;" vertex="1" parent="UM2fPUtxfAE8h3gEoYwY-47">
          <mxGeometry width="40" height="40" as="geometry">
            <mxRectangle width="40" height="40" as="alternateBounds" />
          </mxGeometry>
        </mxCell>
        <mxCell id="UM2fPUtxfAE8h3gEoYwY-49" value="-1" style="shape=partialRectangle;html=1;whiteSpace=wrap;connectable=0;strokeColor=inherit;overflow=hidden;fillColor=none;top=0;left=0;bottom=0;right=0;pointerEvents=1;fontSize=16;swimlaneFillColor=none;" vertex="1" parent="UM2fPUtxfAE8h3gEoYwY-47">
          <mxGeometry x="40" width="40" height="40" as="geometry">
            <mxRectangle width="40" height="40" as="alternateBounds" />
          </mxGeometry>
        </mxCell>
        <mxCell id="UM2fPUtxfAE8h3gEoYwY-50" value="-2" style="shape=partialRectangle;html=1;whiteSpace=wrap;connectable=0;strokeColor=inherit;overflow=hidden;fillColor=none;top=0;left=0;bottom=0;right=0;pointerEvents=1;fontSize=16;swimlaneFillColor=none;" vertex="1" parent="UM2fPUtxfAE8h3gEoYwY-47">
          <mxGeometry x="80" width="40" height="40" as="geometry">
            <mxRectangle width="40" height="40" as="alternateBounds" />
          </mxGeometry>
        </mxCell>
        <mxCell id="UM2fPUtxfAE8h3gEoYwY-51" value="8" style="shape=partialRectangle;html=1;whiteSpace=wrap;connectable=0;strokeColor=inherit;overflow=hidden;fillColor=none;top=0;left=0;bottom=0;right=0;pointerEvents=1;fontSize=16;swimlaneFillColor=none;" vertex="1" parent="UM2fPUtxfAE8h3gEoYwY-47">
          <mxGeometry x="120" width="40" height="40" as="geometry">
            <mxRectangle width="40" height="40" as="alternateBounds" />
          </mxGeometry>
        </mxCell>
        <mxCell id="UM2fPUtxfAE8h3gEoYwY-52" value="7" style="shape=partialRectangle;html=1;whiteSpace=wrap;connectable=0;strokeColor=inherit;overflow=hidden;fillColor=none;top=0;left=0;bottom=0;right=0;pointerEvents=1;fontSize=16;swimlaneFillColor=none;" vertex="1" parent="UM2fPUtxfAE8h3gEoYwY-47">
          <mxGeometry x="160" width="40" height="40" as="geometry">
            <mxRectangle width="40" height="40" as="alternateBounds" />
          </mxGeometry>
        </mxCell>
        <mxCell id="UM2fPUtxfAE8h3gEoYwY-10" value="" style="shape=tableRow;horizontal=0;startSize=0;swimlaneHead=0;swimlaneBody=0;strokeColor=inherit;top=0;left=0;bottom=0;right=0;collapsible=0;dropTarget=0;fillColor=none;points=[[0,0.5],[1,0.5]];portConstraint=eastwest;fontSize=16;swimlaneFillColor=none;" vertex="1" parent="UM2fPUtxfAE8h3gEoYwY-1">
          <mxGeometry y="160" width="200" height="40" as="geometry" />
        </mxCell>
        <mxCell id="UM2fPUtxfAE8h3gEoYwY-16" value="0" style="shape=partialRectangle;html=1;whiteSpace=wrap;connectable=0;strokeColor=inherit;overflow=hidden;fillColor=none;top=0;left=0;bottom=0;right=0;pointerEvents=1;fontSize=16;swimlaneFillColor=none;" vertex="1" parent="UM2fPUtxfAE8h3gEoYwY-10">
          <mxGeometry width="40" height="40" as="geometry">
            <mxRectangle width="40" height="40" as="alternateBounds" />
          </mxGeometry>
        </mxCell>
        <mxCell id="UM2fPUtxfAE8h3gEoYwY-11" value="2" style="shape=partialRectangle;html=1;whiteSpace=wrap;connectable=0;strokeColor=inherit;overflow=hidden;fillColor=none;top=0;left=0;bottom=0;right=0;pointerEvents=1;fontSize=16;swimlaneFillColor=none;" vertex="1" parent="UM2fPUtxfAE8h3gEoYwY-10">
          <mxGeometry x="40" width="40" height="40" as="geometry">
            <mxRectangle width="40" height="40" as="alternateBounds" />
          </mxGeometry>
        </mxCell>
        <mxCell id="UM2fPUtxfAE8h3gEoYwY-12" value="0" style="shape=partialRectangle;html=1;whiteSpace=wrap;connectable=0;strokeColor=inherit;overflow=hidden;fillColor=none;top=0;left=0;bottom=0;right=0;pointerEvents=1;fontSize=16;swimlaneFillColor=none;" vertex="1" parent="UM2fPUtxfAE8h3gEoYwY-10">
          <mxGeometry x="80" width="40" height="40" as="geometry">
            <mxRectangle width="40" height="40" as="alternateBounds" />
          </mxGeometry>
        </mxCell>
        <mxCell id="UM2fPUtxfAE8h3gEoYwY-13" value="3" style="shape=partialRectangle;html=1;whiteSpace=wrap;connectable=0;strokeColor=inherit;overflow=hidden;fillColor=none;top=0;left=0;bottom=0;right=0;pointerEvents=1;fontSize=16;swimlaneFillColor=none;" vertex="1" parent="UM2fPUtxfAE8h3gEoYwY-10">
          <mxGeometry x="120" width="40" height="40" as="geometry">
            <mxRectangle width="40" height="40" as="alternateBounds" />
          </mxGeometry>
        </mxCell>
        <mxCell id="UM2fPUtxfAE8h3gEoYwY-37" value="1" style="shape=partialRectangle;html=1;whiteSpace=wrap;connectable=0;strokeColor=inherit;overflow=hidden;fillColor=none;top=0;left=0;bottom=0;right=0;pointerEvents=1;fontSize=16;swimlaneFillColor=none;" vertex="1" parent="UM2fPUtxfAE8h3gEoYwY-10">
          <mxGeometry x="160" width="40" height="40" as="geometry">
            <mxRectangle width="40" height="40" as="alternateBounds" />
          </mxGeometry>
        </mxCell>
        <mxCell id="UM2fPUtxfAE8h3gEoYwY-126" value="" style="endArrow=none;html=1;rounded=0;fontFamily=Helvetica;fontSize=16;fontColor=default;startSize=0;exitX=-0.002;exitY=-0.02;exitDx=0;exitDy=0;exitPerimeter=0;opacity=50;entryX=0;entryY=0.01;entryDx=0;entryDy=0;entryPerimeter=0;" edge="1" parent="1" source="UM2fPUtxfAE8h3gEoYwY-2" target="UM2fPUtxfAE8h3gEoYwY-111">
          <mxGeometry width="50" height="50" relative="1" as="geometry">
            <mxPoint x="110" y="392" as="sourcePoint" />
            <mxPoint x="380" y="322" as="targetPoint" />
          </mxGeometry>
        </mxCell>
        <mxCell id="UM2fPUtxfAE8h3gEoYwY-128" value="" style="endArrow=none;html=1;rounded=0;fontFamily=Helvetica;fontSize=16;fontColor=default;startSize=0;exitX=0.602;exitY=0.03;exitDx=0;exitDy=0;exitPerimeter=0;opacity=50;entryX=1.003;entryY=-0.01;entryDx=0;entryDy=0;entryPerimeter=0;" edge="1" parent="1" source="UM2fPUtxfAE8h3gEoYwY-2" target="UM2fPUtxfAE8h3gEoYwY-111">
          <mxGeometry width="50" height="50" relative="1" as="geometry">
            <mxPoint x="110" y="392" as="sourcePoint" />
            <mxPoint x="520" y="292" as="targetPoint" />
          </mxGeometry>
        </mxCell>
        <mxCell id="UM2fPUtxfAE8h3gEoYwY-129" value="" style="endArrow=none;html=1;rounded=0;fontFamily=Helvetica;fontSize=16;fontColor=default;startSize=0;entryX=1;entryY=1;entryDx=0;entryDy=0;entryPerimeter=0;opacity=50;exitX=0.598;exitY=0;exitDx=0;exitDy=0;exitPerimeter=0;" edge="1" parent="1" source="UM2fPUtxfAE8h3gEoYwY-47" target="UM2fPUtxfAE8h3gEoYwY-119">
          <mxGeometry width="50" height="50" relative="1" as="geometry">
            <mxPoint x="110" y="392" as="sourcePoint" />
            <mxPoint x="210" y="312" as="targetPoint" />
          </mxGeometry>
        </mxCell>
        <mxCell id="UM2fPUtxfAE8h3gEoYwY-130" value="" style="endArrow=none;html=1;rounded=0;fontFamily=Helvetica;fontSize=16;fontColor=default;startSize=0;exitX=-0.006;exitY=-0.01;exitDx=0;exitDy=0;exitPerimeter=0;entryX=0.01;entryY=1.02;entryDx=0;entryDy=0;entryPerimeter=0;opacity=50;" edge="1" parent="1" source="UM2fPUtxfAE8h3gEoYwY-47" target="UM2fPUtxfAE8h3gEoYwY-119">
          <mxGeometry width="50" height="50" relative="1" as="geometry">
            <mxPoint x="110" y="392" as="sourcePoint" />
            <mxPoint x="210" y="312" as="targetPoint" />
          </mxGeometry>
        </mxCell>
        <mxCell id="UM2fPUtxfAE8h3gEoYwY-131" value="" style="endArrow=none;dashed=1;html=1;dashPattern=1 3;strokeWidth=2;rounded=0;fontFamily=Helvetica;fontSize=16;fontColor=default;startSize=0;exitX=0.202;exitY=-0.02;exitDx=0;exitDy=0;exitPerimeter=0;entryX=0.339;entryY=0.033;entryDx=0;entryDy=0;entryPerimeter=0;opacity=50;fillColor=#f8cecc;strokeColor=#b85450;" edge="1" parent="1" source="UM2fPUtxfAE8h3gEoYwY-6" target="UM2fPUtxfAE8h3gEoYwY-115">
          <mxGeometry width="50" height="50" relative="1" as="geometry">
            <mxPoint x="160" y="322" as="sourcePoint" />
            <mxPoint x="210" y="272" as="targetPoint" />
          </mxGeometry>
        </mxCell>
        <mxCell id="UM2fPUtxfAE8h3gEoYwY-132" value="" style="endArrow=none;dashed=1;html=1;dashPattern=1 3;strokeWidth=2;rounded=0;fontFamily=Helvetica;fontSize=16;fontColor=default;startSize=0;exitX=0.404;exitY=0;exitDx=0;exitDy=0;exitPerimeter=0;opacity=50;fillColor=#f8cecc;strokeColor=#b85450;entryX=0.669;entryY=0.017;entryDx=0;entryDy=0;entryPerimeter=0;" edge="1" parent="1" source="UM2fPUtxfAE8h3gEoYwY-6" target="UM2fPUtxfAE8h3gEoYwY-115">
          <mxGeometry width="50" height="50" relative="1" as="geometry">
            <mxPoint x="110" y="141" as="sourcePoint" />
            <mxPoint x="430" y="342" as="targetPoint" />
          </mxGeometry>
        </mxCell>
        <mxCell id="UM2fPUtxfAE8h3gEoYwY-133" value="" style="endArrow=none;dashed=1;html=1;dashPattern=1 3;strokeWidth=2;rounded=0;fontFamily=Helvetica;fontSize=16;fontColor=default;startSize=0;exitX=0.4;exitY=-0.015;exitDx=0;exitDy=0;exitPerimeter=0;opacity=50;fillColor=#f8cecc;strokeColor=#b85450;entryX=0.669;entryY=1.008;entryDx=0;entryDy=0;entryPerimeter=0;" edge="1" parent="1" source="UM2fPUtxfAE8h3gEoYwY-41" target="UM2fPUtxfAE8h3gEoYwY-115">
          <mxGeometry width="50" height="50" relative="1" as="geometry">
            <mxPoint x="110" y="141" as="sourcePoint" />
            <mxPoint x="430" y="382" as="targetPoint" />
          </mxGeometry>
        </mxCell>
        <mxCell id="UM2fPUtxfAE8h3gEoYwY-134" value="" style="endArrow=none;dashed=1;html=1;dashPattern=1 3;strokeWidth=2;rounded=0;fontFamily=Helvetica;fontSize=16;fontColor=default;startSize=0;exitX=0.2;exitY=-0.005;exitDx=0;exitDy=0;exitPerimeter=0;opacity=50;fillColor=#f8cecc;strokeColor=#b85450;entryX=0.35;entryY=-0.03;entryDx=0;entryDy=0;entryPerimeter=0;" edge="1" parent="1" source="UM2fPUtxfAE8h3gEoYwY-41" target="UM2fPUtxfAE8h3gEoYwY-119">
          <mxGeometry width="50" height="50" relative="1" as="geometry">
            <mxPoint x="110" y="141" as="sourcePoint" />
            <mxPoint x="450" y="242" as="targetPoint" />
          </mxGeometry>
        </mxCell>
        <mxCell id="UM2fPUtxfAE8h3gEoYwY-135" value="Input image" style="text;html=1;align=center;verticalAlign=middle;resizable=0;points=[];autosize=1;strokeColor=none;fillColor=none;fontSize=16;fontFamily=Helvetica;fontColor=default;" vertex="1" parent="1">
          <mxGeometry x="115" y="10" width="110" height="30" as="geometry" />
        </mxCell>
        <mxCell id="UM2fPUtxfAE8h3gEoYwY-136" value="$$\star$$" style="text;html=1;align=center;verticalAlign=middle;resizable=0;points=[];autosize=1;strokeColor=none;fillColor=none;fontSize=16;fontFamily=Helvetica;fontColor=default;" vertex="1" parent="1">
          <mxGeometry x="300" y="10" width="90" height="30" as="geometry" />
        </mxCell>
        <mxCell id="UM2fPUtxfAE8h3gEoYwY-137" value="kernel" style="text;html=1;align=center;verticalAlign=middle;resizable=0;points=[];autosize=1;strokeColor=none;fillColor=none;fontSize=16;fontFamily=Helvetica;fontColor=default;" vertex="1" parent="1">
          <mxGeometry x="395" y="10" width="70" height="30" as="geometry" />
        </mxCell>
        <mxCell id="UM2fPUtxfAE8h3gEoYwY-139" value="=" style="text;html=1;align=center;verticalAlign=middle;resizable=0;points=[];autosize=1;strokeColor=none;fillColor=none;fontSize=16;fontFamily=Helvetica;fontColor=default;" vertex="1" parent="1">
          <mxGeometry x="510" y="10" width="30" height="30" as="geometry" />
        </mxCell>
        <mxCell id="UM2fPUtxfAE8h3gEoYwY-110" value="" style="shape=table;html=1;whiteSpace=wrap;startSize=0;container=1;collapsible=0;childLayout=tableLayout;columnLines=0;rowLines=0;fontSize=16;strokeColor=default;opacity=80;" vertex="1" parent="1">
          <mxGeometry x="370" y="192" width="120" height="120" as="geometry" />
        </mxCell>
        <mxCell id="UM2fPUtxfAE8h3gEoYwY-111" value="" style="shape=tableRow;horizontal=0;startSize=0;swimlaneHead=0;swimlaneBody=0;top=0;left=0;bottom=0;right=0;collapsible=0;dropTarget=0;fillColor=none;points=[[0,0.5],[1,0.5]];portConstraint=eastwest;fontSize=16;strokeColor=inherit;" vertex="1" parent="UM2fPUtxfAE8h3gEoYwY-110">
          <mxGeometry width="120" height="40" as="geometry" />
        </mxCell>
        <mxCell id="UM2fPUtxfAE8h3gEoYwY-112" value="$$k_{11}$$" style="shape=partialRectangle;html=1;whiteSpace=wrap;connectable=0;fillColor=none;top=0;left=0;bottom=0;right=0;overflow=hidden;fontSize=12;strokeColor=inherit;" vertex="1" parent="UM2fPUtxfAE8h3gEoYwY-111">
          <mxGeometry width="40" height="40" as="geometry">
            <mxRectangle width="40" height="40" as="alternateBounds" />
          </mxGeometry>
        </mxCell>
        <mxCell id="UM2fPUtxfAE8h3gEoYwY-113" value="$$k_{12&lt;br&gt;}$$" style="shape=partialRectangle;html=1;whiteSpace=wrap;connectable=0;fillColor=none;top=0;left=0;bottom=0;right=0;overflow=hidden;fontSize=12;strokeColor=inherit;" vertex="1" parent="UM2fPUtxfAE8h3gEoYwY-111">
          <mxGeometry x="40" width="40" height="40" as="geometry">
            <mxRectangle width="40" height="40" as="alternateBounds" />
          </mxGeometry>
        </mxCell>
        <mxCell id="UM2fPUtxfAE8h3gEoYwY-114" value="$$k_{13}$$" style="shape=partialRectangle;html=1;whiteSpace=wrap;connectable=0;fillColor=none;top=0;left=0;bottom=0;right=0;overflow=hidden;fontSize=12;strokeColor=inherit;" vertex="1" parent="UM2fPUtxfAE8h3gEoYwY-111">
          <mxGeometry x="80" width="40" height="40" as="geometry">
            <mxRectangle width="40" height="40" as="alternateBounds" />
          </mxGeometry>
        </mxCell>
        <mxCell id="UM2fPUtxfAE8h3gEoYwY-115" value="" style="shape=tableRow;horizontal=0;startSize=0;swimlaneHead=0;swimlaneBody=0;top=0;left=0;bottom=0;right=0;collapsible=0;dropTarget=0;fillColor=none;points=[[0,0.5],[1,0.5]];portConstraint=eastwest;fontSize=16;strokeColor=inherit;" vertex="1" parent="UM2fPUtxfAE8h3gEoYwY-110">
          <mxGeometry y="40" width="120" height="40" as="geometry" />
        </mxCell>
        <mxCell id="UM2fPUtxfAE8h3gEoYwY-116" value="$$k_{21}$$" style="shape=partialRectangle;html=1;whiteSpace=wrap;connectable=0;fillColor=none;top=0;left=0;bottom=0;right=0;overflow=hidden;fontSize=12;strokeColor=inherit;" vertex="1" parent="UM2fPUtxfAE8h3gEoYwY-115">
          <mxGeometry width="40" height="40" as="geometry">
            <mxRectangle width="40" height="40" as="alternateBounds" />
          </mxGeometry>
        </mxCell>
        <mxCell id="UM2fPUtxfAE8h3gEoYwY-117" value="$$k_{22}$$" style="shape=partialRectangle;html=1;whiteSpace=wrap;connectable=0;fillColor=#f8cecc;top=0;left=0;bottom=0;right=0;overflow=hidden;fontSize=12;strokeColor=#b85450;" vertex="1" parent="UM2fPUtxfAE8h3gEoYwY-115">
          <mxGeometry x="40" width="40" height="40" as="geometry">
            <mxRectangle width="40" height="40" as="alternateBounds" />
          </mxGeometry>
        </mxCell>
        <mxCell id="UM2fPUtxfAE8h3gEoYwY-118" value="$$k_{23}$$" style="shape=partialRectangle;html=1;whiteSpace=wrap;connectable=0;fillColor=none;top=0;left=0;bottom=0;right=0;overflow=hidden;fontSize=12;strokeColor=inherit;" vertex="1" parent="UM2fPUtxfAE8h3gEoYwY-115">
          <mxGeometry x="80" width="40" height="40" as="geometry">
            <mxRectangle width="40" height="40" as="alternateBounds" />
          </mxGeometry>
        </mxCell>
        <mxCell id="UM2fPUtxfAE8h3gEoYwY-119" value="" style="shape=tableRow;horizontal=0;startSize=0;swimlaneHead=0;swimlaneBody=0;top=0;left=0;bottom=0;right=0;collapsible=0;dropTarget=0;fillColor=none;points=[[0,0.5],[1,0.5]];portConstraint=eastwest;fontSize=16;strokeColor=inherit;" vertex="1" parent="UM2fPUtxfAE8h3gEoYwY-110">
          <mxGeometry y="80" width="120" height="40" as="geometry" />
        </mxCell>
        <mxCell id="UM2fPUtxfAE8h3gEoYwY-120" value="$$k_{31}$$" style="shape=partialRectangle;html=1;whiteSpace=wrap;connectable=0;fillColor=none;top=0;left=0;bottom=0;right=0;overflow=hidden;fontSize=12;strokeColor=inherit;" vertex="1" parent="UM2fPUtxfAE8h3gEoYwY-119">
          <mxGeometry width="40" height="40" as="geometry">
            <mxRectangle width="40" height="40" as="alternateBounds" />
          </mxGeometry>
        </mxCell>
        <mxCell id="UM2fPUtxfAE8h3gEoYwY-121" value="$$k_{32}$$" style="shape=partialRectangle;html=1;whiteSpace=wrap;connectable=0;fillColor=none;top=0;left=0;bottom=0;right=0;overflow=hidden;fontSize=12;strokeColor=inherit;" vertex="1" parent="UM2fPUtxfAE8h3gEoYwY-119">
          <mxGeometry x="40" width="40" height="40" as="geometry">
            <mxRectangle width="40" height="40" as="alternateBounds" />
          </mxGeometry>
        </mxCell>
        <mxCell id="UM2fPUtxfAE8h3gEoYwY-122" value="$$k_{33}$$" style="shape=partialRectangle;html=1;whiteSpace=wrap;connectable=0;fillColor=none;top=0;left=0;bottom=0;right=0;overflow=hidden;fontSize=12;strokeColor=inherit;" vertex="1" parent="UM2fPUtxfAE8h3gEoYwY-119">
          <mxGeometry x="80" width="40" height="40" as="geometry">
            <mxRectangle width="40" height="40" as="alternateBounds" />
          </mxGeometry>
        </mxCell>
        <mxCell id="UM2fPUtxfAE8h3gEoYwY-140" value="" style="shape=table;startSize=0;container=1;collapsible=0;childLayout=tableLayout;fontSize=16;swimlaneFillColor=none;direction=south;fillStyle=auto;gradientColor=none;fillColor=default;" vertex="1" parent="1">
          <mxGeometry x="590" y="102" width="200" height="200" as="geometry" />
        </mxCell>
        <mxCell id="UM2fPUtxfAE8h3gEoYwY-141" value="" style="shape=tableRow;horizontal=0;startSize=0;swimlaneHead=0;swimlaneBody=0;strokeColor=inherit;top=0;left=0;bottom=0;right=0;collapsible=0;dropTarget=0;fillColor=none;points=[[0,0.5],[1,0.5]];portConstraint=eastwest;fontSize=16;swimlaneFillColor=none;" vertex="1" parent="UM2fPUtxfAE8h3gEoYwY-140">
          <mxGeometry width="200" height="40" as="geometry" />
        </mxCell>
        <mxCell id="UM2fPUtxfAE8h3gEoYwY-142" value="..." style="shape=partialRectangle;html=1;whiteSpace=wrap;connectable=0;strokeColor=inherit;overflow=hidden;fillColor=none;top=0;left=0;bottom=0;right=0;pointerEvents=1;fontSize=16;swimlaneFillColor=none;" vertex="1" parent="UM2fPUtxfAE8h3gEoYwY-141">
          <mxGeometry width="40" height="40" as="geometry">
            <mxRectangle width="40" height="40" as="alternateBounds" />
          </mxGeometry>
        </mxCell>
        <mxCell id="UM2fPUtxfAE8h3gEoYwY-143" value="..." style="shape=partialRectangle;html=1;whiteSpace=wrap;connectable=0;strokeColor=inherit;overflow=hidden;fillColor=none;top=0;left=0;bottom=0;right=0;pointerEvents=1;fontSize=16;swimlaneFillColor=none;" vertex="1" parent="UM2fPUtxfAE8h3gEoYwY-141">
          <mxGeometry x="40" width="40" height="40" as="geometry">
            <mxRectangle width="40" height="40" as="alternateBounds" />
          </mxGeometry>
        </mxCell>
        <mxCell id="UM2fPUtxfAE8h3gEoYwY-144" value="..." style="shape=partialRectangle;html=1;whiteSpace=wrap;connectable=0;strokeColor=inherit;overflow=hidden;fillColor=none;top=0;left=0;bottom=0;right=0;pointerEvents=1;fontSize=16;swimlaneFillColor=none;" vertex="1" parent="UM2fPUtxfAE8h3gEoYwY-141">
          <mxGeometry x="80" width="40" height="40" as="geometry">
            <mxRectangle width="40" height="40" as="alternateBounds" />
          </mxGeometry>
        </mxCell>
        <mxCell id="UM2fPUtxfAE8h3gEoYwY-145" value="..." style="shape=partialRectangle;html=1;whiteSpace=wrap;connectable=0;strokeColor=inherit;overflow=hidden;fillColor=none;top=0;left=0;bottom=0;right=0;pointerEvents=1;fontSize=16;swimlaneFillColor=none;" vertex="1" parent="UM2fPUtxfAE8h3gEoYwY-141">
          <mxGeometry x="120" width="40" height="40" as="geometry">
            <mxRectangle width="40" height="40" as="alternateBounds" />
          </mxGeometry>
        </mxCell>
        <mxCell id="UM2fPUtxfAE8h3gEoYwY-146" value="..." style="shape=partialRectangle;html=1;whiteSpace=wrap;connectable=0;strokeColor=inherit;overflow=hidden;fillColor=none;top=0;left=0;bottom=0;right=0;pointerEvents=1;fontSize=16;swimlaneFillColor=none;" vertex="1" parent="UM2fPUtxfAE8h3gEoYwY-141">
          <mxGeometry x="160" width="40" height="40" as="geometry">
            <mxRectangle width="40" height="40" as="alternateBounds" />
          </mxGeometry>
        </mxCell>
        <mxCell id="UM2fPUtxfAE8h3gEoYwY-147" value="" style="shape=tableRow;horizontal=0;startSize=0;swimlaneHead=0;swimlaneBody=0;strokeColor=inherit;top=0;left=0;bottom=0;right=0;collapsible=0;dropTarget=0;fillColor=none;points=[[0,0.5],[1,0.5]];portConstraint=eastwest;fontSize=16;swimlaneFillColor=none;" vertex="1" parent="UM2fPUtxfAE8h3gEoYwY-140">
          <mxGeometry y="40" width="200" height="41" as="geometry" />
        </mxCell>
        <mxCell id="UM2fPUtxfAE8h3gEoYwY-148" value="..." style="shape=partialRectangle;html=1;whiteSpace=wrap;connectable=0;strokeColor=inherit;overflow=hidden;fillColor=none;top=0;left=0;bottom=0;right=0;pointerEvents=1;fontSize=16;swimlaneFillColor=none;" vertex="1" parent="UM2fPUtxfAE8h3gEoYwY-147">
          <mxGeometry width="40" height="41" as="geometry">
            <mxRectangle width="40" height="41" as="alternateBounds" />
          </mxGeometry>
        </mxCell>
        <mxCell id="UM2fPUtxfAE8h3gEoYwY-149" value="" style="shape=partialRectangle;html=1;whiteSpace=wrap;connectable=0;strokeColor=#82b366;overflow=hidden;fillColor=#d5e8d4;top=0;left=0;bottom=0;right=0;pointerEvents=1;fontSize=16;swimlaneFillColor=none;" vertex="1" parent="UM2fPUtxfAE8h3gEoYwY-147">
          <mxGeometry x="40" width="40" height="41" as="geometry">
            <mxRectangle width="40" height="41" as="alternateBounds" />
          </mxGeometry>
        </mxCell>
        <mxCell id="UM2fPUtxfAE8h3gEoYwY-150" value="..." style="shape=partialRectangle;html=1;whiteSpace=wrap;connectable=0;strokeColor=inherit;overflow=hidden;fillColor=none;top=0;left=0;bottom=0;right=0;pointerEvents=1;fontSize=16;swimlaneFillColor=none;" vertex="1" parent="UM2fPUtxfAE8h3gEoYwY-147">
          <mxGeometry x="80" width="40" height="41" as="geometry">
            <mxRectangle width="40" height="41" as="alternateBounds" />
          </mxGeometry>
        </mxCell>
        <mxCell id="UM2fPUtxfAE8h3gEoYwY-151" value="..." style="shape=partialRectangle;html=1;whiteSpace=wrap;connectable=0;strokeColor=inherit;overflow=hidden;fillColor=none;top=0;left=0;bottom=0;right=0;pointerEvents=1;fontSize=16;swimlaneFillColor=none;" vertex="1" parent="UM2fPUtxfAE8h3gEoYwY-147">
          <mxGeometry x="120" width="40" height="41" as="geometry">
            <mxRectangle width="40" height="41" as="alternateBounds" />
          </mxGeometry>
        </mxCell>
        <mxCell id="UM2fPUtxfAE8h3gEoYwY-152" value="..." style="shape=partialRectangle;html=1;whiteSpace=wrap;connectable=0;strokeColor=inherit;overflow=hidden;fillColor=none;top=0;left=0;bottom=0;right=0;pointerEvents=1;fontSize=16;swimlaneFillColor=none;" vertex="1" parent="UM2fPUtxfAE8h3gEoYwY-147">
          <mxGeometry x="160" width="40" height="41" as="geometry">
            <mxRectangle width="40" height="41" as="alternateBounds" />
          </mxGeometry>
        </mxCell>
        <mxCell id="UM2fPUtxfAE8h3gEoYwY-153" style="shape=tableRow;horizontal=0;startSize=0;swimlaneHead=0;swimlaneBody=0;strokeColor=inherit;top=0;left=0;bottom=0;right=0;collapsible=0;dropTarget=0;fillColor=none;points=[[0,0.5],[1,0.5]];portConstraint=eastwest;fontSize=16;swimlaneFillColor=none;" vertex="1" parent="UM2fPUtxfAE8h3gEoYwY-140">
          <mxGeometry y="81" width="200" height="39" as="geometry" />
        </mxCell>
        <mxCell id="UM2fPUtxfAE8h3gEoYwY-154" value="..." style="shape=partialRectangle;html=1;whiteSpace=wrap;connectable=0;strokeColor=inherit;overflow=hidden;fillColor=none;top=0;left=0;bottom=0;right=0;pointerEvents=1;fontSize=16;swimlaneFillColor=none;" vertex="1" parent="UM2fPUtxfAE8h3gEoYwY-153">
          <mxGeometry width="40" height="39" as="geometry">
            <mxRectangle width="40" height="39" as="alternateBounds" />
          </mxGeometry>
        </mxCell>
        <mxCell id="UM2fPUtxfAE8h3gEoYwY-155" value="..." style="shape=partialRectangle;html=1;whiteSpace=wrap;connectable=0;strokeColor=inherit;overflow=hidden;fillColor=none;top=0;left=0;bottom=0;right=0;pointerEvents=1;fontSize=16;swimlaneFillColor=none;" vertex="1" parent="UM2fPUtxfAE8h3gEoYwY-153">
          <mxGeometry x="40" width="40" height="39" as="geometry">
            <mxRectangle width="40" height="39" as="alternateBounds" />
          </mxGeometry>
        </mxCell>
        <mxCell id="UM2fPUtxfAE8h3gEoYwY-156" value="..." style="shape=partialRectangle;html=1;whiteSpace=wrap;connectable=0;strokeColor=inherit;overflow=hidden;fillColor=none;top=0;left=0;bottom=0;right=0;pointerEvents=1;fontSize=16;swimlaneFillColor=none;" vertex="1" parent="UM2fPUtxfAE8h3gEoYwY-153">
          <mxGeometry x="80" width="40" height="39" as="geometry">
            <mxRectangle width="40" height="39" as="alternateBounds" />
          </mxGeometry>
        </mxCell>
        <mxCell id="UM2fPUtxfAE8h3gEoYwY-157" value="..." style="shape=partialRectangle;html=1;whiteSpace=wrap;connectable=0;strokeColor=inherit;overflow=hidden;fillColor=none;top=0;left=0;bottom=0;right=0;pointerEvents=1;fontSize=16;swimlaneFillColor=none;" vertex="1" parent="UM2fPUtxfAE8h3gEoYwY-153">
          <mxGeometry x="120" width="40" height="39" as="geometry">
            <mxRectangle width="40" height="39" as="alternateBounds" />
          </mxGeometry>
        </mxCell>
        <mxCell id="UM2fPUtxfAE8h3gEoYwY-158" value="..." style="shape=partialRectangle;html=1;whiteSpace=wrap;connectable=0;strokeColor=inherit;overflow=hidden;fillColor=none;top=0;left=0;bottom=0;right=0;pointerEvents=1;fontSize=16;swimlaneFillColor=none;" vertex="1" parent="UM2fPUtxfAE8h3gEoYwY-153">
          <mxGeometry x="160" width="40" height="39" as="geometry">
            <mxRectangle width="40" height="39" as="alternateBounds" />
          </mxGeometry>
        </mxCell>
        <mxCell id="UM2fPUtxfAE8h3gEoYwY-159" style="shape=tableRow;horizontal=0;startSize=0;swimlaneHead=0;swimlaneBody=0;strokeColor=inherit;top=0;left=0;bottom=0;right=0;collapsible=0;dropTarget=0;fillColor=none;points=[[0,0.5],[1,0.5]];portConstraint=eastwest;fontSize=16;swimlaneFillColor=none;" vertex="1" parent="UM2fPUtxfAE8h3gEoYwY-140">
          <mxGeometry y="120" width="200" height="40" as="geometry" />
        </mxCell>
        <mxCell id="UM2fPUtxfAE8h3gEoYwY-160" value="..." style="shape=partialRectangle;html=1;whiteSpace=wrap;connectable=0;strokeColor=inherit;overflow=hidden;fillColor=none;top=0;left=0;bottom=0;right=0;pointerEvents=1;fontSize=16;swimlaneFillColor=none;" vertex="1" parent="UM2fPUtxfAE8h3gEoYwY-159">
          <mxGeometry width="40" height="40" as="geometry">
            <mxRectangle width="40" height="40" as="alternateBounds" />
          </mxGeometry>
        </mxCell>
        <mxCell id="UM2fPUtxfAE8h3gEoYwY-161" value="..." style="shape=partialRectangle;html=1;whiteSpace=wrap;connectable=0;strokeColor=inherit;overflow=hidden;fillColor=none;top=0;left=0;bottom=0;right=0;pointerEvents=1;fontSize=16;swimlaneFillColor=none;" vertex="1" parent="UM2fPUtxfAE8h3gEoYwY-159">
          <mxGeometry x="40" width="40" height="40" as="geometry">
            <mxRectangle width="40" height="40" as="alternateBounds" />
          </mxGeometry>
        </mxCell>
        <mxCell id="UM2fPUtxfAE8h3gEoYwY-162" value="..." style="shape=partialRectangle;html=1;whiteSpace=wrap;connectable=0;strokeColor=inherit;overflow=hidden;fillColor=none;top=0;left=0;bottom=0;right=0;pointerEvents=1;fontSize=16;swimlaneFillColor=none;" vertex="1" parent="UM2fPUtxfAE8h3gEoYwY-159">
          <mxGeometry x="80" width="40" height="40" as="geometry">
            <mxRectangle width="40" height="40" as="alternateBounds" />
          </mxGeometry>
        </mxCell>
        <mxCell id="UM2fPUtxfAE8h3gEoYwY-163" value="..." style="shape=partialRectangle;html=1;whiteSpace=wrap;connectable=0;strokeColor=inherit;overflow=hidden;fillColor=none;top=0;left=0;bottom=0;right=0;pointerEvents=1;fontSize=16;swimlaneFillColor=none;" vertex="1" parent="UM2fPUtxfAE8h3gEoYwY-159">
          <mxGeometry x="120" width="40" height="40" as="geometry">
            <mxRectangle width="40" height="40" as="alternateBounds" />
          </mxGeometry>
        </mxCell>
        <mxCell id="UM2fPUtxfAE8h3gEoYwY-164" value="..." style="shape=partialRectangle;html=1;whiteSpace=wrap;connectable=0;strokeColor=inherit;overflow=hidden;fillColor=none;top=0;left=0;bottom=0;right=0;pointerEvents=1;fontSize=16;swimlaneFillColor=none;" vertex="1" parent="UM2fPUtxfAE8h3gEoYwY-159">
          <mxGeometry x="160" width="40" height="40" as="geometry">
            <mxRectangle width="40" height="40" as="alternateBounds" />
          </mxGeometry>
        </mxCell>
        <mxCell id="UM2fPUtxfAE8h3gEoYwY-165" value="" style="shape=tableRow;horizontal=0;startSize=0;swimlaneHead=0;swimlaneBody=0;strokeColor=inherit;top=0;left=0;bottom=0;right=0;collapsible=0;dropTarget=0;fillColor=none;points=[[0,0.5],[1,0.5]];portConstraint=eastwest;fontSize=16;swimlaneFillColor=none;" vertex="1" parent="UM2fPUtxfAE8h3gEoYwY-140">
          <mxGeometry y="160" width="200" height="40" as="geometry" />
        </mxCell>
        <mxCell id="UM2fPUtxfAE8h3gEoYwY-166" value="..." style="shape=partialRectangle;html=1;whiteSpace=wrap;connectable=0;strokeColor=inherit;overflow=hidden;fillColor=none;top=0;left=0;bottom=0;right=0;pointerEvents=1;fontSize=16;swimlaneFillColor=none;" vertex="1" parent="UM2fPUtxfAE8h3gEoYwY-165">
          <mxGeometry width="40" height="40" as="geometry">
            <mxRectangle width="40" height="40" as="alternateBounds" />
          </mxGeometry>
        </mxCell>
        <mxCell id="UM2fPUtxfAE8h3gEoYwY-167" value="..." style="shape=partialRectangle;html=1;whiteSpace=wrap;connectable=0;strokeColor=inherit;overflow=hidden;fillColor=none;top=0;left=0;bottom=0;right=0;pointerEvents=1;fontSize=16;swimlaneFillColor=none;" vertex="1" parent="UM2fPUtxfAE8h3gEoYwY-165">
          <mxGeometry x="40" width="40" height="40" as="geometry">
            <mxRectangle width="40" height="40" as="alternateBounds" />
          </mxGeometry>
        </mxCell>
        <mxCell id="UM2fPUtxfAE8h3gEoYwY-168" value="..." style="shape=partialRectangle;html=1;whiteSpace=wrap;connectable=0;strokeColor=inherit;overflow=hidden;fillColor=none;top=0;left=0;bottom=0;right=0;pointerEvents=1;fontSize=16;swimlaneFillColor=none;" vertex="1" parent="UM2fPUtxfAE8h3gEoYwY-165">
          <mxGeometry x="80" width="40" height="40" as="geometry">
            <mxRectangle width="40" height="40" as="alternateBounds" />
          </mxGeometry>
        </mxCell>
        <mxCell id="UM2fPUtxfAE8h3gEoYwY-169" value="..." style="shape=partialRectangle;html=1;whiteSpace=wrap;connectable=0;strokeColor=inherit;overflow=hidden;fillColor=none;top=0;left=0;bottom=0;right=0;pointerEvents=1;fontSize=16;swimlaneFillColor=none;" vertex="1" parent="UM2fPUtxfAE8h3gEoYwY-165">
          <mxGeometry x="120" width="40" height="40" as="geometry">
            <mxRectangle width="40" height="40" as="alternateBounds" />
          </mxGeometry>
        </mxCell>
        <mxCell id="UM2fPUtxfAE8h3gEoYwY-170" value="..." style="shape=partialRectangle;html=1;whiteSpace=wrap;connectable=0;strokeColor=inherit;overflow=hidden;fillColor=none;top=0;left=0;bottom=0;right=0;pointerEvents=1;fontSize=16;swimlaneFillColor=none;" vertex="1" parent="UM2fPUtxfAE8h3gEoYwY-165">
          <mxGeometry x="160" width="40" height="40" as="geometry">
            <mxRectangle width="40" height="40" as="alternateBounds" />
          </mxGeometry>
        </mxCell>
        <mxCell id="UM2fPUtxfAE8h3gEoYwY-228" value="result" style="text;html=1;align=center;verticalAlign=middle;resizable=0;points=[];autosize=1;strokeColor=none;fillColor=none;fontSize=16;fontFamily=Helvetica;fontColor=default;" vertex="1" parent="1">
          <mxGeometry x="610" y="10" width="60" height="30" as="geometry" />
        </mxCell>
        <mxCell id="UM2fPUtxfAE8h3gEoYwY-230" value="" style="endArrow=none;dashed=1;html=1;rounded=0;fontFamily=Helvetica;fontSize=16;fontColor=default;startSize=0;exitX=0;exitY=0;exitDx=0;exitDy=0;entryX=0.208;entryY=-0.01;entryDx=0;entryDy=0;entryPerimeter=0;" edge="1" parent="1" source="UM2fPUtxfAE8h3gEoYwY-229" target="UM2fPUtxfAE8h3gEoYwY-147">
          <mxGeometry width="50" height="50" relative="1" as="geometry">
            <mxPoint x="410" y="212" as="sourcePoint" />
            <mxPoint x="460" y="162" as="targetPoint" />
          </mxGeometry>
        </mxCell>
        <mxCell id="UM2fPUtxfAE8h3gEoYwY-233" value="" style="endArrow=none;dashed=1;html=1;rounded=0;fontFamily=Helvetica;fontSize=16;fontColor=default;startSize=0;exitX=1;exitY=0;exitDx=0;exitDy=0;entryX=0.406;entryY=0.01;entryDx=0;entryDy=0;entryPerimeter=0;" edge="1" parent="1" source="UM2fPUtxfAE8h3gEoYwY-229" target="UM2fPUtxfAE8h3gEoYwY-147">
          <mxGeometry width="50" height="50" relative="1" as="geometry">
            <mxPoint x="410" y="212" as="sourcePoint" />
            <mxPoint x="460" y="162" as="targetPoint" />
          </mxGeometry>
        </mxCell>
        <mxCell id="UM2fPUtxfAE8h3gEoYwY-234" value="" style="endArrow=none;dashed=1;html=1;rounded=0;fontFamily=Helvetica;fontSize=16;fontColor=default;startSize=0;exitX=0;exitY=1;exitDx=0;exitDy=0;entryX=0.198;entryY=-0.046;entryDx=0;entryDy=0;entryPerimeter=0;" edge="1" parent="1" source="UM2fPUtxfAE8h3gEoYwY-229" target="UM2fPUtxfAE8h3gEoYwY-153">
          <mxGeometry width="50" height="50" relative="1" as="geometry">
            <mxPoint x="410" y="212" as="sourcePoint" />
            <mxPoint x="460" y="162" as="targetPoint" />
          </mxGeometry>
        </mxCell>
        <mxCell id="UM2fPUtxfAE8h3gEoYwY-235" value="" style="endArrow=none;dashed=1;html=1;rounded=0;fontFamily=Helvetica;fontSize=16;fontColor=default;startSize=0;exitX=1;exitY=1;exitDx=0;exitDy=0;entryX=0.404;entryY=0.976;entryDx=0;entryDy=0;entryPerimeter=0;" edge="1" parent="1" source="UM2fPUtxfAE8h3gEoYwY-229" target="UM2fPUtxfAE8h3gEoYwY-147">
          <mxGeometry width="50" height="50" relative="1" as="geometry">
            <mxPoint x="410" y="212" as="sourcePoint" />
            <mxPoint x="460" y="162" as="targetPoint" />
          </mxGeometry>
        </mxCell>
        <mxCell id="UM2fPUtxfAE8h3gEoYwY-229" value="$$x=1k_{11}+2k_{12}+5k_{13}$$&lt;br&gt;$$+4k_{21}+1k_{22}-3k_{23}$$&lt;br&gt;$$+0k_{31}-3k_{32}+1k_{33}$$" style="rounded=0;whiteSpace=wrap;html=1;fillStyle=auto;strokeColor=#82b366;fontFamily=Helvetica;fontSize=16;startSize=0;fillColor=#d5e8d4;opacity=80;" vertex="1" parent="1">
          <mxGeometry x="560" y="192" width="190" height="160" as="geometry" />
        </mxCell>
      </root>
    </mxGraphModel>
  </diagram>
</mxfile>
